<svg width="46" height="46" viewBox="0 0 46 46" fill="none" xmlns="http://www.w3.org/2000/svg">
<g clip-path="url(#clip0_926_891)">
<path d="M14.9502 29.1331C15.1419 28.9414 15.4294 28.8456 15.7169 28.5581C16.1961 28.2706 16.7711 27.8872 17.3461 27.6956C18.5919 27.0247 19.1669 25.6831 18.7836 24.3414L18.4961 23.6706C21.4669 22.8081 24.5336 22.8081 27.5044 23.6706L27.3127 24.4372C26.8336 25.6831 27.4086 27.2164 28.7502 27.7914C29.3252 27.9831 29.9002 28.3664 30.3794 28.6539C30.5711 28.8456 30.8586 28.9414 31.1461 29.2289C32.6794 30.3789 34.9794 30.1872 36.4169 28.7497L39.2919 25.8747C40.1544 25.0122 40.5377 23.8622 40.4419 22.8081C40.346 21.5622 39.6752 20.5081 38.7169 19.7414C34.2127 16.1956 28.7502 14.3748 23.0002 14.3748C17.2502 14.3748 11.6919 16.2914 7.28358 19.7414C6.32525 20.5081 5.84608 21.5622 5.65442 22.7122C5.65442 23.8622 6.03775 25.0122 6.80442 25.7789L9.67941 28.6539C11.2127 30.1872 13.3211 30.3789 14.9502 29.1331Z" fill="white"/>
</g>
<defs>
<clipPath id="clip0_926_891">
<rect width="32" height="32" fill="white" transform="translate(46 23) scale(1.01646) rotate(135)"/>
</clipPath>
</defs>
</svg>
