<svg width="72" height="80" viewBox="0 0 72 80" fill="none" xmlns="http://www.w3.org/2000/svg">
<path d="M59.2527 9.88C58.9327 9.88 58.6127 9.8 58.3327 9.64C50.6527 5.68 44.0127 4 36.0527 4C28.1327 4 20.6126 5.88 13.7726 9.64C12.8126 10.16 11.6126 9.80001 11.0526 8.84001C10.5326 7.88 10.8926 6.64 11.8526 6.12C19.2926 2.08 27.4527 0 36.0527 0C44.5727 0 52.0127 1.88 60.1727 6.08C61.1727 6.6 61.5327 7.8 61.0127 8.76001C60.6527 9.48001 59.9727 9.88 59.2527 9.88ZM2.01264 30.88C1.61264 30.88 1.21264 30.76 0.852636 30.52C-0.0673646 29.88 -0.267365 28.64 0.372635 27.72C4.33264 22.12 9.37264 17.72 15.3726 14.64C27.9327 8.16 44.0127 8.12001 56.6127 14.6C62.6127 17.68 67.6527 22.04 71.6127 27.6C72.2527 28.48 72.0527 29.76 71.1327 30.4C70.2127 31.04 68.9727 30.84 68.3327 29.92C64.7327 24.88 60.1727 20.92 54.7727 18.16C43.2927 12.28 28.6127 12.28 17.1726 18.2C11.7326 21 7.17264 25 3.57264 30.04C3.25264 30.6 2.65264 30.88 2.01264 30.88ZM27.0127 79.1601C26.4927 79.1601 25.9727 78.96 25.6127 78.56C22.1326 75.08 20.2526 72.84 17.5726 68C14.8126 63.08 13.3726 57.08 13.3726 50.64C13.3726 38.76 23.5326 29.08 36.0127 29.08C48.4927 29.08 58.6527 38.76 58.6527 50.64C58.6527 51.76 57.7727 52.64 56.6527 52.64C55.5327 52.64 54.6527 51.76 54.6527 50.64C54.6527 40.96 46.2927 33.08 36.0127 33.08C25.7326 33.08 17.3726 40.96 17.3726 50.64C17.3726 56.4 18.6526 61.72 21.0927 66.04C23.6527 70.64 25.4127 72.6 28.4927 75.72C29.2527 76.52 29.2527 77.76 28.4927 78.56C28.0527 78.96 27.5327 79.1601 27.0127 79.1601ZM55.6927 71.76C50.9327 71.76 46.7327 70.56 43.2927 68.2C37.3327 64.16 33.7727 57.6 33.7727 50.64C33.7727 49.52 34.6527 48.64 35.7727 48.64C36.8927 48.64 37.7727 49.52 37.7727 50.64C37.7727 56.28 40.6527 61.6 45.5327 64.88C48.3727 66.8 51.6927 67.72 55.6927 67.72C56.6527 67.72 58.2527 67.6 59.8527 67.32C60.9327 67.12 61.9727 67.84 62.1727 68.96C62.3727 70.04 61.6527 71.08 60.5327 71.28C58.2527 71.72 56.2527 71.76 55.6927 71.76ZM47.6527 80C47.4927 80 47.2927 79.96 47.1327 79.92C40.7727 78.16 36.6127 75.8 32.2527 71.52C26.6527 65.96 23.5727 58.56 23.5727 50.64C23.5727 44.16 29.0927 38.88 35.8927 38.88C42.6927 38.88 48.2127 44.16 48.2127 50.64C48.2127 54.92 51.9327 58.4 56.5327 58.4C61.1327 58.4 64.8527 54.92 64.8527 50.64C64.8527 35.56 51.8527 23.32 35.8527 23.32C24.4926 23.32 14.0926 29.64 9.41264 39.44C7.85264 42.68 7.05264 46.48 7.05264 50.64C7.05264 53.76 7.33264 58.68 9.73264 65.08C10.1326 66.12 9.61264 67.28 8.57264 67.64C7.53264 68.04 6.37264 67.48 6.01264 66.48C4.05264 61.24 3.09264 56.04 3.09264 50.64C3.09264 45.84 4.01264 41.48 5.81264 37.68C11.1326 26.52 22.9326 19.28 35.8527 19.28C54.0527 19.28 68.8527 33.32 68.8527 50.6C68.8527 57.08 63.3327 62.36 56.5327 62.36C49.7327 62.36 44.2127 57.08 44.2127 50.6C44.2127 46.32 40.4927 42.84 35.8927 42.84C31.2927 42.84 27.5727 46.32 27.5727 50.6C27.5727 57.44 30.2127 63.84 35.0527 68.64C38.8527 72.4 42.4927 74.48 48.1327 76.04C49.2127 76.32 49.8127 77.44 49.5327 78.48C49.3327 79.4 48.4927 80 47.6527 80Z" fill="#1A73E8"/>
</svg>
