<svg width="39" height="24" viewBox="0 0 39 24" fill="none" xmlns="http://www.w3.org/2000/svg">
<path fill-rule="evenodd" clip-rule="evenodd" d="M27.0524 17.9973H7.01359C3.10602 17.9973 0 14.8913 0 10.9837C0 7.07611 3.10602 3.97009 7.01359 3.97009H27.0524C30.96 3.97009 34.066 7.07611 34.066 10.9837C34.066 14.8913 30.96 17.9973 27.0524 17.9973Z" fill="#A6C8FF"/>
<g filter="url(#filter0_dd_1514_2156)">
<path fill-rule="evenodd" clip-rule="evenodd" d="M27.0522 21.003C32.5857 21.003 37.0716 16.5172 37.0716 10.9836C37.0716 5.45005 32.5857 0.964209 27.0522 0.964209C21.5186 0.964209 17.0328 5.45005 17.0328 10.9836C17.0328 16.5172 21.5186 21.003 27.0522 21.003Z" fill="#0061FF"/>
</g>
<path d="M31.3948 11.0595L24.5351 15.0199L24.5351 7.09908L31.3948 11.0595Z" fill="#D9D9D9"/>
<defs>
<filter id="filter0_dd_1514_2156" x="15.1044" y="1.34968e-05" width="23.8956" height="23.8956" filterUnits="userSpaceOnUse" color-interpolation-filters="sRGB">
<feFlood flood-opacity="0" result="BackgroundImageFix"/>
<feColorMatrix in="SourceAlpha" type="matrix" values="0 0 0 0 0 0 0 0 0 0 0 0 0 0 0 0 0 0 127 0" result="hardAlpha"/>
<feOffset dy="0.962328"/>
<feGaussianBlur stdDeviation="0.962328"/>
<feColorMatrix type="matrix" values="0 0 0 0 0 0 0 0 0 0 0 0 0 0 0 0 0 0 0.2 0"/>
<feBlend mode="normal" in2="BackgroundImageFix" result="effect1_dropShadow_1514_2156"/>
<feColorMatrix in="SourceAlpha" type="matrix" values="0 0 0 0 0 0 0 0 0 0 0 0 0 0 0 0 0 0 127 0" result="hardAlpha"/>
<feOffset dy="0.0962328"/>
<feGaussianBlur stdDeviation="0.144349"/>
<feColorMatrix type="matrix" values="0 0 0 0 0 0 0 0 0 0 0 0 0 0 0 0 0 0 0.1 0"/>
<feBlend mode="normal" in2="effect1_dropShadow_1514_2156" result="effect2_dropShadow_1514_2156"/>
<feBlend mode="normal" in="SourceGraphic" in2="effect2_dropShadow_1514_2156" result="shape"/>
</filter>
</defs>
</svg>
