<svg width="345" height="230" viewBox="0 0 345 230" fill="none" xmlns="http://www.w3.org/2000/svg">
<path d="M180.867 108.435L178.994 105.734H175.712C175.63 105.733 175.551 105.71 175.481 105.667C175.412 105.624 175.356 105.564 175.318 105.492C175.281 105.419 175.263 105.339 175.268 105.257C175.273 105.176 175.3 105.098 175.345 105.031L177.339 102.421L176.296 99.2918C176.269 99.2117 176.265 99.1255 176.284 99.0431C176.303 98.9607 176.346 98.8855 176.406 98.826C176.466 98.7665 176.542 98.7252 176.625 98.7069C176.708 98.6885 176.794 98.6938 176.874 98.7221L179.98 99.8122L182.635 97.8782C182.703 97.8321 182.782 97.8054 182.864 97.8009C182.946 97.7964 183.027 97.8143 183.1 97.8526C183.172 97.891 183.233 97.9483 183.275 98.0185C183.317 98.0887 183.339 98.169 183.339 98.2509L183.262 101.528L185.938 103.512C186.006 103.561 186.059 103.628 186.091 103.705C186.122 103.783 186.132 103.868 186.118 103.95C186.104 104.033 186.067 104.11 186.012 104.173C185.956 104.236 185.885 104.282 185.804 104.306L182.656 105.249L181.642 108.371C181.609 108.444 181.558 108.506 181.493 108.552C181.428 108.598 181.352 108.625 181.273 108.632C181.194 108.638 181.115 108.623 181.043 108.589C180.972 108.554 180.911 108.501 180.867 108.435Z" fill="#F37458"/>
<path d="M267.575 48.9707L269.308 44.969L266.983 41.2696C266.924 41.1751 266.892 41.0657 266.891 40.9539C266.89 40.842 266.921 40.7323 266.98 40.6371C267.038 40.5418 267.123 40.465 267.223 40.4152C267.323 40.3653 267.435 40.3446 267.547 40.3553L271.899 40.7632L274.717 37.4085C274.789 37.3237 274.884 37.2607 274.99 37.2263C275.097 37.1919 275.211 37.1876 275.319 37.2139C275.428 37.2401 275.527 37.2958 275.606 37.3748C275.685 37.4538 275.74 37.5531 275.766 37.6617L276.724 41.9237L280.774 43.5483C280.877 43.5908 280.967 43.6612 281.033 43.7516C281.099 43.842 281.139 43.9489 281.147 44.0604C281.156 44.1719 281.134 44.2836 281.083 44.3832C281.032 44.4827 280.954 44.5662 280.858 44.6243L277.097 46.8468L276.801 51.2002C276.794 51.3115 276.755 51.4185 276.69 51.509C276.625 51.5995 276.535 51.67 276.432 51.7124C276.329 51.7549 276.215 51.7676 276.105 51.7492C275.995 51.7307 275.892 51.6819 275.808 51.6081L272.526 48.7246L268.3 49.7936C268.19 49.826 268.072 49.8262 267.961 49.7942C267.851 49.7622 267.751 49.6993 267.675 49.6129C267.599 49.5265 267.549 49.4202 267.531 49.3064C267.514 49.1927 267.529 49.0762 267.575 48.9707Z" fill="#F8CC7F"/>
<path d="M41.2585 159.072L39.0329 154.852L34.2718 154.276C34.1491 154.261 34.0331 154.212 33.9367 154.135C33.8404 154.058 33.7676 153.955 33.7266 153.839C33.6855 153.723 33.6779 153.597 33.7046 153.477C33.7312 153.356 33.7911 153.246 33.8774 153.158L37.2369 149.732L36.3213 145.006C36.2994 144.887 36.3112 144.763 36.3554 144.65C36.3997 144.537 36.4747 144.438 36.5719 144.365C36.6692 144.292 36.7849 144.248 36.9061 144.237C37.0273 144.226 37.1492 144.249 37.2581 144.303L41.5544 146.413L45.7802 144.085C45.8873 144.024 46.0094 143.994 46.1325 144C46.2556 144.005 46.3748 144.045 46.4763 144.114C46.5778 144.184 46.6575 144.281 46.7063 144.394C46.7551 144.507 46.771 144.631 46.7522 144.753L46.0479 149.5L49.5694 152.764C49.6589 152.848 49.723 152.956 49.7545 153.075C49.7861 153.194 49.7838 153.319 49.7479 153.437C49.7121 153.554 49.6441 153.659 49.5516 153.741C49.4591 153.822 49.3457 153.876 49.2243 153.896L44.4913 154.691L42.4418 159.072C42.3886 159.184 42.3048 159.278 42.2001 159.344C42.0954 159.411 41.974 159.446 41.8502 159.446C41.7263 159.446 41.605 159.411 41.5002 159.344C41.3955 159.278 41.3117 159.184 41.2585 159.072Z" fill="#A0BFE4"/>
<path d="M295.325 57.0376L295.374 59.3585L291.648 59.8578L291.31 63.2618L288.578 64.0917L289 65.4772L292.649 64.3659L292.973 61.1378L296.853 60.6174L296.769 57.122L295.325 57.0376Z" fill="#476EB5"/>
<path d="M88.7574 33.2731C88.8642 32.5334 89.2577 31.8653 89.8532 31.4127C90.4488 30.9601 91.1985 30.7594 91.9409 30.8538C92.4918 30.9307 93.0075 31.1687 93.4231 31.5379C93.8387 31.907 94.1355 32.3907 94.2762 32.9281C94.417 33.4654 94.3952 34.0323 94.2138 34.5574C94.0324 35.0824 93.6994 35.5421 93.2568 35.8784C92.8142 36.2148 92.2818 36.4128 91.7267 36.4475C91.1716 36.4822 90.6186 36.3521 90.1374 36.0735C89.6562 35.7948 89.2684 35.3802 89.0229 34.8819C88.7773 34.3836 88.6849 33.8238 88.7574 33.2731ZM90.2576 29.1025L91.0042 16.8722C91.0199 16.6324 91.084 16.3984 91.1927 16.1841C91.3014 15.9698 91.4525 15.7797 91.6368 15.6252C91.821 15.4708 92.0347 15.3552 92.2649 15.2855C92.4952 15.2157 92.7371 15.1933 92.9763 15.2194L94.1947 15.353C94.4336 15.3804 94.6645 15.4558 94.8734 15.5747C95.0823 15.6935 95.265 15.8534 95.4104 16.0446C95.5559 16.2358 95.661 16.4544 95.7196 16.6873C95.7782 16.9202 95.7889 17.1625 95.7512 17.3996L93.7933 29.4964L90.2576 29.1025Z" fill="#F58D80"/>
<path d="M80.9887 94.8259C81.0732 97.8641 81.855 104.37 88.7361 105.446C93.0113 106.114 98.4908 102.281 98.1387 99.4606C97.7865 96.6404 97.0047 89.4667 92.5042 87.828C88.8136 86.4566 80.8056 88.039 80.9887 94.8259Z" fill="#194655"/>
<path d="M138.468 192.88C139.447 196.966 140.207 202.86 140.496 203.19C140.63 203.345 140.912 204.372 141.053 204.541C145.504 206.158 149.413 204.491 152.512 202.656C150.082 202.227 146.807 201.777 146.356 201.46C144.666 200.264 145.067 196.024 144.764 192.219C143.539 192.43 140.637 191.67 138.468 192.88Z" fill="#F8A491"/>
<path d="M140.405 202.958C140.405 204.569 141.468 208.015 141.813 208.008C142.158 208.001 155.568 206.847 156.829 204.801C157.583 203.57 155.526 203.246 152.533 202.691C149.413 204.491 140.771 203.964 140.405 202.958Z" fill="#476EB5"/>
<path d="M74.9811 201.974C72.8742 203.628 70.6628 205.146 68.3606 206.517C68.1775 206.601 67.1069 206.601 66.9097 206.686C64.1558 210.533 64.7193 214.745 65.656 218.213C66.7266 215.99 67.9803 212.889 68.4733 212.586C71.2195 211.003 74.0799 209.625 77.0307 208.465C75.3262 206.679 75.5657 204.407 74.9811 201.974Z" fill="#F8A491"/>
<path d="M82.0241 116.649L72.4665 134.007L62.7893 146.153C63.4936 147.313 64.1979 148.502 64.7966 149.718C68.0646 146.94 75.0302 141.04 77.5165 137.762C81.1859 132.945 87.8346 121.516 87.8346 121.516L82.0241 116.649Z" fill="#F8A491"/>
<path d="M107.429 146.856L97.2091 161.885C97.2091 161.885 96.6246 160.873 100.28 162.216C103.935 163.559 127.544 167.955 128.945 169.615C129.931 170.796 137.256 193.914 138.665 196.882C140.778 197.747 143.877 196.79 146.053 196.474C146.194 185.34 140.285 165.057 138.714 162.715C135.193 157.398 118.416 151.659 110.866 148.438C109.647 147.918 108.696 147.447 108.105 147.165C107.668 146.954 107.429 146.856 107.429 146.856Z" fill="#4D90FF"/>
<path d="M68.1774 206.573C66.6139 206.172 63.4233 206.179 63.3458 206.489C63.2684 206.798 60.7822 220.034 62.4162 221.792C63.4022 222.854 64.2615 220.963 65.6349 218.234C64.7193 214.767 67.128 206.665 68.1774 206.573Z" fill="#476EB5"/>
<path d="M104.745 157.455C104.837 156.322 107.26 149.718 108.112 147.158C108.112 147.074 107.506 145.59 106.823 143.452L105.844 143.607L91.314 144.268C91.314 144.268 85.4612 154.114 86.1444 158.671C87.0952 165.001 96.2583 187.507 94.8637 188.562C92.3494 190.475 80.0239 197.606 73.6921 201.847C74.1006 204.294 75.2346 207.712 76.7841 209.668C81.9396 207.874 104.21 198.914 106.499 192.036C108.52 185.959 104.597 159.375 104.745 157.455Z" fill="#4D90FF"/>
<path d="M104.513 101.985C104.513 101.985 100.512 108.266 98.1741 108.491L106.52 116.227C106.52 116.227 112.204 107.717 112.796 106.254C112.774 106.226 107.619 101.627 104.513 101.985Z" fill="#F8CC7F"/>
<path d="M107.436 139.921C107.271 142.356 107.509 144.801 108.14 147.158C104.788 147.862 92.8917 149.395 89.9829 145.857C89.8772 145.731 94.1031 138.29 93.5044 135.252C92.6452 130.771 88.9194 123.176 88.5743 122.768C88.0601 122.065 86.1514 125.623 86.1514 125.623C83.9188 125.623 78.8125 120.454 78.8125 120.454C78.8125 120.454 84.0948 111.255 85.5528 110.39C87.0107 109.525 99.0262 108.224 99.0333 108.224C99.9137 108.153 102.329 110.249 102.999 110.91C110.626 118.478 108.584 129.323 107.436 139.921Z" fill="#F9E0B2"/>
<path d="M92.293 104.363C92.293 104.363 93.603 108.681 93.61 110.439C93.6171 112.197 94.3143 114.589 98.012 114.23C101.71 113.871 98.674 110.158 98.1528 108.491C97.6423 106.2 97.2567 103.882 96.9978 101.549L92.293 104.363Z" fill="#F8A491"/>
<path d="M97.3499 104.215C97.1457 102.773 96.9978 101.57 96.9978 101.57L92.293 104.384C92.293 104.384 92.5606 105.27 92.8564 106.395C93.739 106.537 94.6441 106.404 95.4483 106.014C96.2524 105.624 96.9165 104.996 97.3499 104.215Z" fill="#F37458"/>
<path d="M88.4546 91.3164C87.2005 92.2843 86.3359 93.6693 86.0176 95.2197C85.5176 97.7657 87.0389 104.06 92.5114 105.066C97.9839 106.072 99.7728 100.769 98.2727 96.9287C96.7725 93.0887 93.8637 88.3203 88.4546 91.3164Z" fill="#F8A491"/>
<path d="M98.7797 95.3182C98.7797 96.3872 98.2796 97.2593 97.6528 97.2593C97.0259 97.2593 96.5188 96.4012 96.5118 95.3252C96.5047 94.2491 97.0119 93.3841 97.6387 93.3841C98.2655 93.3841 98.7726 94.2421 98.7797 95.3182Z" fill="#F8A491"/>
<path d="M88.3982 100.656C89.1025 101.514 89.2293 102.611 88.6447 103.097C88.0602 103.582 87.0037 103.28 86.2853 102.393C85.5669 101.507 85.4472 100.438 86.0317 99.9529C86.6163 99.4676 87.6728 99.7911 88.3982 100.656Z" fill="#F8A491"/>
<path d="M82.8412 88.9111C83.0525 85.9783 85.1373 75.042 78.4393 74.0082C71.7413 72.9743 70.2904 80.3027 66.6068 70.4565C63.1627 61.3488 52.9432 64.8794 52.5206 71.7928C51.5281 71.7039 50.529 71.861 49.6118 72.2499C48.0176 72.9805 46.7784 74.3124 46.1658 75.9537C45.5532 77.5949 45.6172 79.4118 46.3438 81.006C46.5692 81.5616 46.4424 82.1032 46.7805 82.5603C45.9987 85.5704 46.541 89.0166 48.8934 92.512C55.2322 102.07 61.6344 92.0127 65.9377 92.512C70.2411 93.0113 67.4379 96.4012 71.1637 99.0245C74.8895 101.648 77.8899 100.959 83.954 93.8131L85.4472 91.8368C85.0731 91.8493 84.7009 91.7794 84.3569 91.632C84.013 91.4847 83.7057 91.2636 83.457 90.9843C83.2082 90.705 83.0241 90.3745 82.9177 90.0162C82.8113 89.6579 82.7852 89.2806 82.8412 88.9111Z" fill="#194655"/>
<path d="M271.054 172.161C273.365 171.2 275.607 170.084 277.766 168.82C278.041 168.672 279.175 167.835 279.344 167.716C282.302 169.474 283.38 170.972 285.683 173.342C283.957 173.434 283.232 172.02 282.57 172.168C281.774 172.344 279.259 174.024 275.336 177.091C274.681 174.847 272.702 173.743 271.054 172.161Z" fill="#F8A492"/>
<path d="M223.549 206.503C224.095 208.917 224.876 211.273 225.88 213.536C225.957 213.712 226.478 213.845 226.584 214.028C224.358 216.644 223.394 221.005 220.689 222.911C220.886 221.195 222.034 217.988 221.999 217.284C221.957 216.468 220.717 213.719 218.372 209.344C220.633 209.056 221.717 207.867 223.549 206.503Z" fill="#F8A492"/>
<path d="M224.957 214.253C225.029 214.061 225.139 213.885 225.281 213.738C225.424 213.59 225.595 213.473 225.785 213.395C225.975 213.316 226.179 213.277 226.384 213.281C226.589 213.285 226.792 213.331 226.978 213.416C227.683 213.866 228.655 214.366 229.366 214.858C229.608 214.988 229.812 215.178 229.958 215.41C230.105 215.641 230.19 215.906 230.204 216.18C230.148 216.588 220.661 227.665 219.449 227.827C218.238 227.989 220.478 218.621 221.816 217.657C222.999 216.799 223.591 217.685 224.957 214.253Z" fill="#4D90FF"/>
<path d="M279.062 168.827C278.889 168.722 278.739 168.584 278.621 168.42C278.504 168.255 278.42 168.069 278.377 167.872C278.333 167.674 278.331 167.47 278.369 167.272C278.406 167.073 278.484 166.885 278.598 166.717C279.175 166.091 279.83 165.24 280.45 164.607C280.62 164.392 280.843 164.225 281.097 164.122C281.352 164.02 281.629 163.986 281.901 164.024C282.288 164.15 291.508 175.452 291.444 176.683C291.381 177.914 282.563 174.024 281.851 172.54C281.218 171.204 282.197 170.782 279.062 168.827Z" fill="#4D90FF"/>
<path d="M227.183 165.219C227.183 165.219 245.889 190.39 249.143 190.622C252.186 190.84 275.78 177.703 275.78 177.703L272.71 170.923L253.82 177.703L240.663 152.841L227.183 165.219Z" fill="#B85742"/>
<path d="M237.952 143.944C237.952 143.944 241.375 144.76 243.333 149.972C245.291 155.183 242.016 159.515 233.81 167.062C225.823 174.418 217.942 181.325 217.942 181.325L224.415 207.945L219.034 212.523C219.034 212.523 206.56 185.446 206.222 179.004C206.089 176.549 225.239 148.016 225.239 148.016L237.952 143.944Z" fill="#F37458"/>
<path d="M223.478 111.353L213.047 117.177L204.814 121.143C204.814 121.143 202.793 114.293 203.469 110.931C203.64 110.458 203.893 110.017 204.215 109.63C205.575 107.591 202.666 104.419 202.666 104.419C202.666 104.419 200.912 103.92 199.715 106.81C198.517 109.701 200.729 110.931 200.729 110.931C200.729 110.931 198.215 119.68 199.264 126.059C199.82 129.4 208.188 126.953 214.85 124.069C218.204 122.624 221.442 120.924 224.535 118.984L223.478 111.353Z" fill="#F8A491"/>
<path d="M225.823 110.355C225.66 110.223 225.461 110.142 225.252 110.122C225.043 110.102 224.833 110.144 224.647 110.242C223.358 110.727 210.836 117.592 210.836 117.592C210.836 117.592 211.963 123.598 214.893 125.448L221.231 123.52L226.056 111.346C226.121 111.177 226.134 110.992 226.092 110.815C226.051 110.638 225.957 110.478 225.823 110.355Z" fill="#4D90FF"/>
<path d="M254.644 84.6702C249.897 81.7656 243.966 82.3282 240.438 86.2315C237.546 85.1363 234.339 85.2273 231.514 86.4847C226.204 88.9603 221.499 95.4307 225.506 100.129C224.654 106.367 228.387 109.975 233.043 110.404C235.578 115.475 244.544 115.995 249.707 111.811C253.975 113.456 259.039 112.753 262.187 109.701C262.852 108.986 263.557 108.309 264.3 107.675C263.997 107.823 276.182 106.212 275.625 95.487C275.062 84.5225 261.948 80.3027 254.644 84.6702Z" fill="#F58761"/>
<path d="M233.05 109.525L240.797 109.947L239.508 120.742C239.508 120.742 235.775 131.13 237.297 136.124C238.818 141.117 240.29 144.753 240.29 144.753C240.29 144.753 235.888 149.803 223.549 148.769C223.549 148.769 223.711 139.816 223.549 137.101C223.387 134.386 220.231 123.091 220.668 120.546C221.105 118 223.83 110.931 224.535 110.341C225.239 109.75 228.056 109.44 228.056 109.44L233.05 109.525Z" fill="#4D90FF"/>
<path d="M233.416 103.596C233.416 103.596 233.282 104.468 233.155 105.586C232.963 106.958 232.906 108.346 232.986 109.729C233.226 111.445 231.578 115.981 227.943 116.143C224.309 116.305 227.866 111.135 228.141 109.433C228.415 107.731 228.415 101.507 228.415 101.507L233.416 103.596Z" fill="#F8A491"/>
<path d="M228.443 104.145C228.443 102.703 228.443 101.507 228.443 101.507L233.444 103.617C233.444 103.617 233.31 104.517 233.176 105.664C232.327 105.933 231.415 105.931 230.567 105.659C229.719 105.386 228.977 104.857 228.443 104.145Z" fill="#F37458"/>
<path d="M233.796 90.7748C235.183 91.3486 236.322 92.3953 237.008 93.7287C238.107 95.9371 238.304 102.07 233.55 104.356C228.796 106.641 225.802 102.246 226.232 98.3634C226.662 94.4812 228.091 89.4034 233.796 90.7748Z" fill="#F8A491"/>
<path d="M225.366 97.0342C225.633 98.0118 226.309 98.6799 226.88 98.5322C227.45 98.3846 227.704 97.4562 227.436 96.4716C227.169 95.487 226.493 94.8188 225.922 94.9736C225.352 95.1283 225.098 96.0496 225.366 97.0342Z" fill="#F8A491"/>
<path d="M236.43 99.13C235.994 100.101 236.17 101.127 236.825 101.43C237.48 101.732 238.367 101.177 238.811 100.213C239.255 99.2496 239.078 98.2087 238.423 97.9133C237.768 97.6179 236.874 98.1595 236.43 99.13Z" fill="#F8A491"/>
<path d="M133.312 146.328C132.608 144.219 102.97 58.0785 101.682 54.3158C100.707 51.5357 98.6745 49.251 96.0246 47.9569C93.3747 46.6628 90.3209 46.4636 87.5249 47.4024L43.3575 62.0873C41.9764 62.5369 40.6986 63.256 39.5981 64.2029C38.4977 65.1498 37.5966 66.3056 36.9473 67.6031C36.2979 68.9007 35.9132 70.3141 35.8154 71.7614C35.7176 73.2086 35.9088 74.6608 36.3778 76.0337L68.0084 168.046C68.9831 170.825 71.0144 173.108 73.6626 174.402C76.3109 175.696 79.363 175.896 82.158 174.96L126.325 160.268C127.706 159.819 128.984 159.101 130.085 158.154C131.185 157.208 132.087 156.053 132.737 154.757C133.387 153.46 133.772 152.047 133.871 150.6C133.97 149.153 133.78 147.701 133.312 146.328ZM122.586 148.649L77.9674 163.489C76.354 164.029 74.5928 163.913 73.0642 163.167C71.5355 162.421 70.3621 161.104 69.7974 159.501L40.5473 74.4021C40.2796 73.6103 40.1715 72.7734 40.2294 71.9396C40.2873 71.1059 40.5099 70.2919 40.8844 69.5446C41.259 68.7972 41.778 68.1313 42.4116 67.5853C43.0452 67.0393 43.7808 66.624 44.576 66.3633L89.1941 51.5237C90.8065 50.9825 92.5675 51.0976 94.0955 51.844C95.6235 52.5905 96.7953 53.9081 97.3571 55.5114C104.464 76.1744 125.973 138.754 126.614 140.611C126.882 141.402 126.99 142.239 126.932 143.073C126.874 143.907 126.652 144.721 126.277 145.468C125.903 146.215 125.383 146.881 124.75 147.427C124.116 147.973 123.381 148.389 122.586 148.649Z" fill="#34548A"/>
<path d="M111.14 158.629C111.845 160.605 108.696 163.433 104.161 164.959C99.6248 166.485 95.3989 166.084 94.7157 164.101C94.0326 162.118 97.1597 159.29 101.695 157.771C106.231 156.252 110.436 156.646 111.14 158.629Z" fill="#194655"/>
<path d="M109.936 158.784C110.577 160.648 107.992 163.187 104.161 164.46C100.329 165.733 96.7021 165.261 96.0682 163.398C95.4343 161.534 98.0121 159.002 101.844 157.722C105.675 156.442 109.295 156.962 109.936 158.784Z" fill="#34548A"/>
<path d="M272.547 60.1883L222.915 48.9848C216.358 47.5079 209.892 51.383 208.469 57.6424L185.797 157.666C184.389 163.925 188.544 170.205 195.108 171.689L244.734 182.893C251.298 184.37 257.764 180.495 259.18 174.228L281.83 74.1981C283.274 67.9457 279.105 61.6723 272.547 60.1883ZM256.229 165.402C255.784 167.166 254.658 168.682 253.096 169.618C251.534 170.554 249.664 170.834 247.897 170.395L197.721 159.072C195.936 158.71 194.368 157.654 193.362 156.137C192.355 154.621 191.993 152.767 192.355 150.984L213.301 58.5004C213.519 57.626 213.908 56.803 214.445 56.0787C214.982 55.3544 215.656 54.7429 216.43 54.2791C217.204 53.8153 218.062 53.5084 218.955 53.3759C219.847 53.2435 220.757 53.288 221.633 53.507L271.773 64.8301C273.558 65.1929 275.126 66.2485 276.132 67.765C277.139 69.2815 277.501 71.135 277.14 72.9181L256.229 165.402Z" fill="#8CB0DD"/>
<path d="M231.5 173.047C231.014 175.199 226.492 176.015 221.393 174.861C216.294 173.708 212.561 171.028 213.047 168.918C213.533 166.809 218.062 165.951 223.161 167.097C228.26 168.243 231.993 170.895 231.5 173.047Z" fill="#476EB5"/>
<path d="M230.282 172.519C229.824 174.545 225.964 175.396 221.661 174.425C217.358 173.455 214.237 171.028 214.674 169.003C215.111 166.977 218.991 166.126 223.295 167.104C227.598 168.082 230.739 170.501 230.282 172.519Z" fill="#8CB0DD"/>
<path d="M240.473 112.746C240.473 112.746 256.785 108.793 260.419 108.125C264.054 107.457 276.675 102.921 277.161 102.724C277.647 102.527 279.471 96.0496 280.175 96.4786C280.879 96.9076 279.083 99.7419 279.971 100.108C280.858 100.473 288.465 97.0764 288.514 97.6883C288.613 98.8417 283.943 99.9459 284.091 100.501C284.239 101.057 288.859 98.8979 289.423 99.6927C289.986 100.487 284.866 101.303 284.767 101.746C284.669 102.189 289.697 101.613 289.423 102.562C289.275 103.083 284.95 102.977 285.126 103.575C285.303 104.173 288.606 104.763 288.38 105.34C288.155 105.917 285.683 104.482 283.986 104.911C282.288 105.34 280.83 104.785 278.351 106.254C275.872 107.724 267.617 113.927 261.764 115.207C255.912 116.487 243.002 119.35 243.002 119.35L240.473 112.746Z" fill="#F8A491"/>
<path d="M236.508 110.242C237.064 109.982 238.755 109.933 240.769 109.954C241.515 109.954 242.558 109.954 243.347 109.954C246.298 109.869 249.094 110.01 249.094 110.01C249.094 110.01 250.573 117.156 249.34 118.984C249.34 118.984 237.818 120.623 238.071 121.425L236.508 110.242Z" fill="#4D90FF"/>
<path d="M196.559 110.284L197.552 109.033C197.906 108.491 198.461 108.111 199.095 107.978C200.024 107.886 199.996 106.726 199.01 106.887C198.467 106.976 197.932 107.11 197.411 107.288C198.097 106.954 198.761 106.576 199.398 106.156C199.595 105.453 198.517 105.143 197.073 106.212C195.63 107.281 196.559 110.284 196.559 110.284Z" fill="#F8A491"/>
<path d="M63.381 147.918C62.9384 148.152 62.5145 148.42 62.1132 148.72C62.1106 148.699 62.1106 148.677 62.1132 148.656L63.0429 147.672C63.9797 146.968 63.4866 146.195 62.6063 146.666C62.112 146.926 61.6408 147.227 61.1976 147.566C61.7632 147.049 62.2731 146.474 62.7189 145.85C62.7189 145.091 61.5498 145.147 60.5285 146.652C59.6341 147.953 60.9511 150.218 61.3385 150.752C61.5726 151.229 61.9426 151.625 62.402 151.892L62.6415 150.415C62.7209 150.105 62.8606 149.814 63.0528 149.558C63.2449 149.302 63.4857 149.087 63.7613 148.924C64.6558 148.523 64.2543 147.44 63.381 147.918Z" fill="#F8A491"/>
<path d="M200.158 105.741C200.158 105.741 202.476 103.884 202.842 104.672C203.208 105.46 203.053 107.176 202.708 107.056C202.363 106.937 202.405 105.713 201.412 106.029C201.137 106.121 199.757 106.557 200.158 105.741Z" fill="#F8A491"/>
<path d="M240.734 42.3246L157.498 24.6014C156.386 24.365 155.331 23.9119 154.394 23.2682C153.457 22.6244 152.656 21.8026 152.037 20.8496C151.418 19.8967 150.994 18.8313 150.788 17.7144C150.581 16.5975 150.598 15.4509 150.835 14.3403L152.427 6.85717C152.907 4.61461 154.259 2.65409 156.186 1.40651C158.113 0.158925 160.457 -0.273616 162.703 0.203955L245.938 17.9271C248.186 18.4047 250.151 19.7541 251.401 21.6784C252.652 23.6027 253.086 25.9443 252.608 28.1882L251.01 35.6713C250.53 37.9139 249.178 39.8744 247.251 41.122C245.324 42.3696 242.98 42.8021 240.734 42.3246Z" fill="#0061FF"/>
<path d="M225.915 36.1496L233.578 46.6077L236.036 38.8714L225.915 36.1496Z" fill="#0061FF"/>
<path d="M177.761 12.6594C177.36 14.5372 175.324 15.6906 173.211 15.2405C171.099 14.7904 169.69 12.9055 170.105 11.0207C170.521 9.13585 172.542 7.98948 174.662 8.43959C176.782 8.8897 178.163 10.7816 177.761 12.6594Z" fill="white"/>
<path d="M174.528 15.3038L171.965 14.7623C171.411 14.6435 170.839 14.6351 170.281 14.7374C169.724 14.8396 169.192 15.0506 168.717 15.3583C168.241 15.666 167.831 16.0643 167.51 16.5304C167.188 16.9965 166.962 17.5213 166.844 18.0748L166.182 21.1834L177.184 23.5324L177.846 20.4238C177.965 19.8701 177.973 19.2984 177.871 18.7414C177.769 18.1845 177.557 17.653 177.249 17.1776C176.941 16.7021 176.542 16.2919 176.076 15.9704C175.609 15.6489 175.083 15.4224 174.528 15.3038Z" fill="white"/>
<path d="M210.716 22.0625C209.941 25.6986 204.053 27.5271 197.559 26.1487C191.066 24.7702 186.438 20.6981 187.22 17.062C188.002 13.426 193.883 11.5974 200.37 12.9829C206.856 14.3684 211.491 18.4124 210.716 22.0625Z" fill="white"/>
<path d="M199.996 24.8898L196.242 28.4203L205.138 26.3175L204.807 20.5856L199.996 24.8898Z" fill="white"/>
<path d="M227.295 24.3693L228.641 23.666C228.841 23.5665 229.001 23.4009 229.094 23.1971C229.186 22.9934 229.205 22.764 229.148 22.5478C228.831 21.2939 228.255 20.12 227.457 19.1016C227.318 18.9364 227.127 18.8225 226.915 18.7779C226.703 18.7334 226.483 18.7606 226.288 18.8555L223.936 20.0018C223.79 20.0731 223.664 20.1802 223.57 20.313C223.477 20.4458 223.418 20.6 223.401 20.7614C223.015 23.7339 223.754 26.7429 225.471 29.201C227.41 31.9451 230.009 34.1581 233.028 35.6362C233.188 35.7064 233.363 35.7336 233.536 35.7151C233.709 35.6966 233.874 35.633 234.015 35.5307L236.184 33.9201C236.368 33.7838 236.497 33.5864 236.549 33.3635C236.6 33.1406 236.571 32.9066 236.466 32.7034C235.773 31.3429 234.686 30.2227 233.345 29.4893C233.17 29.3932 232.968 29.3538 232.769 29.3765C232.57 29.3992 232.382 29.4828 232.233 29.6159L231.423 30.3192C231.262 30.4634 231.058 30.55 230.842 30.5653C230.626 30.5806 230.412 30.5237 230.232 30.4036C229.444 29.8691 228.119 28.5891 226.831 25.572C226.747 25.3494 226.748 25.1041 226.834 24.8825C226.92 24.6608 227.084 24.4782 227.295 24.3693Z" fill="white"/>
<path d="M139.663 85.2686L132.033 97.8055C131.259 99.0768 131.664 100.734 132.937 101.506L145.492 109.126C146.765 109.899 148.424 109.494 149.198 108.223L156.828 95.6861C157.602 94.4149 157.197 92.7579 155.924 91.9853L143.369 84.3657C142.096 83.5931 140.437 83.9973 139.663 85.2686Z" fill="#0061FF"/>
<path d="M152.096 98.8557C152.205 98.702 152.281 98.528 152.321 98.3441C152.361 98.1603 152.364 97.9702 152.329 97.7853C152.295 97.6004 152.223 97.4243 152.119 97.2675C152.015 97.1107 151.88 96.9763 151.723 96.8724C148.717 94.2157 145.274 92.098 141.546 90.6131C141.38 90.5205 141.197 90.4624 141.009 90.4421C140.82 90.4218 140.629 90.4397 140.448 90.4949C140.266 90.5501 140.098 90.6413 139.952 90.7631C139.807 90.885 139.688 91.0349 139.602 91.2038C137.862 96.3379 138.461 94.4109 137.714 97.3929C137.628 97.7294 137.669 98.0858 137.831 98.3935C137.992 98.7013 138.261 98.9385 138.587 99.0597C138.927 99.1951 139.306 99.1979 139.648 99.0676C139.989 98.9373 140.27 98.6835 140.433 98.3564C140.616 97.9766 140.792 97.5968 140.968 97.2241C141.025 97.1171 141.102 97.0227 141.196 96.9467C141.291 96.8706 141.399 96.8144 141.516 96.7815C141.632 96.7486 141.754 96.7397 141.875 96.7554C141.995 96.771 142.11 96.8108 142.215 96.8724C143.495 97.523 144.726 98.2657 145.898 99.0949C146.001 99.1591 146.089 99.2432 146.158 99.3422C146.227 99.4412 146.276 99.5531 146.301 99.6712C146.326 99.7893 146.327 99.9112 146.303 100.03C146.28 100.148 146.233 100.261 146.166 100.361L145.419 101.338C145.201 101.631 145.105 101.998 145.152 102.36C145.2 102.722 145.386 103.052 145.673 103.279C145.936 103.501 146.269 103.623 146.613 103.623C146.957 103.623 147.29 103.501 147.553 103.279C148.103 102.808 151.138 99.8544 152.096 98.8557Z" fill="white"/>
<path d="M142.384 92.6105C142.538 92.7072 142.665 92.8431 142.75 93.0043L143.173 92.301L142.278 91.7595L141.863 92.4628C142.046 92.4646 142.226 92.5156 142.384 92.6105Z" fill="#0061FF"/>
<path d="M140.968 92.9621C141.064 92.8054 141.2 92.6769 141.362 92.5894L140.658 92.1744L140.116 93.0606L140.82 93.4825C140.821 93.2988 140.872 93.1188 140.968 92.9621Z" fill="#0061FF"/>
<path d="M141.313 94.3687C141.155 94.2743 141.025 94.138 140.94 93.9749L140.517 94.6782L141.412 95.2197L141.834 94.5164C141.651 94.5117 141.471 94.4609 141.313 94.3687Z" fill="#0061FF"/>
<path d="M142.877 93.5037C142.869 93.6873 142.816 93.8661 142.722 94.0241C142.627 94.1802 142.49 94.3068 142.327 94.3898L143.032 94.8118L143.574 93.9186L142.877 93.5037Z" fill="#0061FF"/>
<path d="M142.384 93.8131C142.293 93.9443 142.155 94.0359 141.999 94.0693C141.843 94.1026 141.68 94.0753 141.543 93.9927C141.407 93.9101 141.307 93.7786 141.264 93.625C141.221 93.4714 141.239 93.3072 141.313 93.1661C141.404 93.0349 141.541 92.9433 141.698 92.9099C141.854 92.8766 142.017 92.9039 142.153 92.9865C142.29 93.0691 142.39 93.2006 142.433 93.3542C142.475 93.5078 142.458 93.672 142.384 93.8131Z" fill="#0061FF"/>
<path d="M150.3 98.7151C150.163 98.9411 149.962 99.1214 149.722 99.2332C149.482 99.3449 149.214 99.3832 148.953 99.3431C148.691 99.303 148.447 99.1864 148.252 99.0079C148.057 98.8295 147.919 98.5972 147.856 98.3405C147.793 98.0839 147.808 97.8143 147.898 97.5659C147.988 97.3175 148.151 97.1015 148.364 96.9451C148.577 96.7887 148.832 96.699 149.097 96.6873C149.361 96.6757 149.623 96.7425 149.849 96.8795C150 96.9705 150.131 97.0901 150.235 97.2316C150.339 97.373 150.414 97.5336 150.456 97.7041C150.497 97.8745 150.505 98.0515 150.479 98.225C150.452 98.3985 150.391 98.565 150.3 98.7151Z" fill="#0061FF"/>
<path d="M157.308 51.0736C157.508 50.2414 157.894 49.465 158.437 48.8025C158.979 48.14 159.665 47.6085 160.442 47.2477C162.851 46.1364 165.45 47.3813 166.542 49.7303C167.802 52.4521 167.035 56.7141 162.464 62.235C155.287 62.1576 151.526 59.9914 150.265 57.2697C149.173 54.9207 149.899 52.1356 152.307 51.0173C153.089 50.6417 153.947 50.4514 154.814 50.4611C155.682 50.4709 156.535 50.6805 157.308 51.0736Z" fill="#F58D80"/>
<path d="M62.7377 23.6408L46.7981 31.2259C44.9159 32.1216 44.1172 34.3712 45.0142 36.2506L49.2924 45.2153C50.1894 47.0948 52.4422 47.8923 54.3244 46.9967L70.2641 39.4116C72.1462 38.5159 72.9449 36.2663 72.048 34.3868L67.7697 25.4221C66.8728 23.5427 64.6199 22.7452 62.7377 23.6408Z" fill="#F9E0B2"/>
<path d="M47.8158 40.3272L44.3999 50.4899L51.9853 44.8846L47.8158 40.3272Z" fill="#F9E0B2"/>
<path d="M53.4431 36.3958L55.4997 35.376C55.4997 35.376 57.1337 32.2181 56.9083 31.5008C56.683 30.7834 55.542 29.5597 55.8519 29.1869C56.0889 28.8818 56.4361 28.6815 56.8192 28.6289C57.2023 28.5763 57.5908 28.6757 57.9014 28.9056C58.6057 29.3628 59.4368 31.8946 59.7538 31.9368C60.5265 31.6978 61.2723 31.3797 61.9794 30.9874C62.2543 30.8522 62.5609 30.7945 62.8663 30.8205C63.1716 30.8465 63.464 30.9553 63.712 31.1351C63.8788 31.2538 63.9989 31.427 64.0516 31.6247C64.1044 31.8224 64.0864 32.0323 64.0008 32.2182L63.7331 32.816L64.3247 33.1184C64.534 33.2265 64.6921 33.4128 64.7646 33.6367C64.8371 33.8605 64.8183 34.1039 64.7121 34.314L64.4867 34.7641L64.8671 34.9188C64.9833 34.9673 65.0879 35.0397 65.1742 35.1314C65.2604 35.223 65.3263 35.3318 65.3676 35.4507C65.4088 35.5695 65.4244 35.6957 65.4134 35.821C65.4024 35.9463 65.365 36.0679 65.3037 36.1777L65.0925 36.5575L65.184 36.6208C65.3656 36.7513 65.4917 36.945 65.5373 37.1637C65.583 37.3824 65.5449 37.6103 65.4305 37.8024L65.2122 38.1681L59.7749 40.918C59.2742 41.1767 58.7248 41.3277 58.162 41.361L56.1125 42.0081C56.0064 42.0412 55.892 42.0353 55.7899 41.9914C55.6878 41.9476 55.6049 41.8686 55.5561 41.769L53.2389 37.0357C53.2087 36.9807 53.19 36.92 53.184 36.8575C53.178 36.795 53.1847 36.7319 53.2038 36.6721C53.2229 36.6123 53.254 36.5569 53.2951 36.5094C53.3362 36.4619 53.3866 36.4233 53.4431 36.3958Z" fill="white"/>
<path d="M185.375 61.3136C197.426 58.5848 208.561 62.3616 210.244 69.7532C211.082 73.4526 209.399 77.3559 206.018 80.6684L213.385 90.4654L201.151 84.3115C198.123 86.0555 194.845 87.3267 191.432 88.0812C179.381 90.81 168.246 87.0333 166.563 79.6416C164.879 72.2499 173.317 64.0354 185.375 61.3136Z" fill="#F9E0B2"/>
<path d="M196.982 74.1418C196.918 75.6798 196.399 77.1643 195.49 78.4078C194.582 79.6513 193.325 80.598 191.877 81.1282C190.43 81.6584 188.858 81.7484 187.36 81.3867C185.861 81.025 184.504 80.228 183.459 79.0962C182.414 77.9645 181.729 76.5488 181.49 75.0282C181.25 73.5076 181.468 71.9503 182.114 70.553C182.761 69.1557 183.808 67.9812 185.123 67.1779C186.438 66.3746 187.962 65.9785 189.502 66.0398C191.57 66.1239 193.519 67.0247 194.922 68.5441C196.325 70.0635 197.066 72.077 196.982 74.1418Z" fill="#F8CC7F"/>
<path d="M184.973 74.8873C184.947 75.4358 185.03 75.984 185.217 76.5004C185.405 77.0168 185.692 77.4911 186.063 77.896C186.435 78.301 186.883 78.6285 187.381 78.8599C187.88 79.0913 188.42 79.2219 188.969 79.2441C189.519 79.2664 190.067 79.1799 190.583 78.9896C191.099 78.7994 191.572 78.5091 191.975 78.1355C192.378 77.762 192.703 77.3125 192.931 76.8129C193.16 76.3134 193.287 75.7737 193.305 75.2249L184.973 74.8873Z" fill="#F0EFEF"/>
<path d="M33.7435 95.7401L29.7712 96.5349L30.2642 100.276L26.3764 101.226L26.4116 104.862L23.6226 106.051L24.2212 107.457L27.9541 105.868L27.9259 102.429L31.9616 101.437L31.4756 97.7586L35.0817 97.0342L33.7435 95.7401Z" fill="#F58D80"/>
<path d="M298.649 126.517L297.543 122.62L293.846 123.408L292.585 119.624L288.958 119.941L287.549 117.261L286.19 117.978L288.077 121.558L291.508 121.256L292.825 125.201L296.459 124.421L297.466 127.951L298.649 126.517Z" fill="#F8CC7F"/>
<path d="M34.4056 54.1962L32.18 54.8784L30.6868 51.4252L27.3132 52.023L25.7778 49.6178L24.5593 50.3984L26.6159 53.6055L29.8135 53.0428L31.37 56.6367L34.7085 55.6099L34.4056 54.1962Z" fill="#4D90FF"/>
<path d="M116.81 68.1497C115.749 67.4676 114.543 67.0414 113.289 66.9049C112.387 66.8205 108.45 66.8275 107.943 67.7699C107.436 68.7123 111.563 71.3919 111.781 72.5102C112 73.6284 109.394 90.9085 108.633 94.3124C108.267 96.0074 106.837 99.1933 105.478 101.992C107.429 102.302 109.802 103.891 111.295 105.024C113.211 100.846 115.169 96.141 115.416 93.9327C115.937 89.5019 117.585 68.7897 116.81 68.1497Z" fill="#F8A491"/>
<path d="M128.227 38.3298C126.882 38.2173 119.867 43.5624 119.867 43.5624L119.55 43.9773C119.55 43.9773 129.03 45.5738 129.474 45.2784C130.671 44.4766 129.333 38.4212 128.227 38.3298ZM119.888 43.7312C122.177 42.0714 126.889 40.0318 127.903 39.6028C128.513 41.0356 128.806 42.5829 128.762 44.1391C127.642 44.0476 122.663 44.1602 119.888 43.7312Z" fill="#476EB5"/>
<path d="M117.979 33.885C116.761 30.6357 115.578 30.7904 114.732 30.8959C113.887 31.0014 110.112 33.7091 110.464 35.7346C110.816 37.7601 118.388 43.7944 118.388 43.7944L118.888 43.2177C118.888 43.2177 119.191 37.1412 117.979 33.885ZM111.64 35.5377C111.464 34.5109 114.084 32.3236 114.951 32.0212C115.116 31.9933 115.285 31.9933 115.451 32.0212C115.613 32.0704 116.155 32.3658 116.902 34.2718C117.799 37.1333 118.332 40.0965 118.486 43.0911C115.451 40.6085 111.845 36.4309 111.619 35.5518L111.64 35.5377Z" fill="#476EB5"/>
<path d="M118.272 42.929L117.926 44.1395C117.809 44.5466 118.046 44.9709 118.453 45.0871L118.866 45.205C119.274 45.3212 119.699 45.0855 119.815 44.6784L120.162 43.4679C120.278 43.0608 120.042 42.6365 119.634 42.5202L119.221 42.4024C118.813 42.2861 118.389 42.5219 118.272 42.929Z" fill="#476EB5"/>
<path d="M126.135 71.5537L100.076 64.1128C99.3954 63.9211 98.814 63.4774 98.4501 62.8723C98.0863 62.2672 97.9674 61.5462 98.1177 60.8565L102.689 39.5114L136.679 49.2028L129.03 70.6183C128.706 71.5115 127.431 71.9264 126.135 71.5537Z" fill="#F37458"/>
<path d="M136.784 54.1892L99.8713 43.7312L100.16 41.2555C100.2 40.9058 100.315 40.5689 100.498 40.2684C100.682 39.9678 100.929 39.7108 101.222 39.5152C101.515 39.3197 101.847 39.1904 102.195 39.1363C102.543 39.0821 102.899 39.1045 103.238 39.2019L136.601 48.816C137.791 49.1536 138.51 50.1523 138.158 50.9681L136.784 54.1892Z" fill="#F9E0B2"/>
<path d="M119.016 43.7506L117.579 48.7752L118.284 48.9761L119.721 43.9515L119.016 43.7506Z" fill="#476EB5"/>
<path d="M118.285 48.9358L112.89 67.8111L113.77 68.062L119.165 49.1868L118.285 48.9358Z" fill="#476EB5"/>
<path d="M110.084 68.1216L110.175 67.0104C109.341 66.7714 108.521 66.4873 107.717 66.1594L107.57 65.3154C107.105 64.155 106.583 64.9778 106.429 65.2451C106.396 65.8015 106.439 66.3598 106.555 66.9049C106.555 66.9049 108.316 68.7616 109.07 69.4649C109.443 69.8095 110.626 70.773 110.626 70.773L111.57 69.4649L110.084 68.1216Z" fill="#F8A491"/>
</svg>
