<svg width="266" height="80" viewBox="0 0 266 80" fill="none" xmlns="http://www.w3.org/2000/svg">
<path d="M12.5857 1H253.414C260.039 1 265 5.23491 265 10.0088V69.9912C265 74.7651 260.039 79 253.414 79H12.5857C5.96129 79 1 74.7651 1 69.9912V10.0088C1 5.23491 5.96129 1 12.5857 1Z" stroke="#2970D7" stroke-width="2"/>
<path d="M8.09895 1H11.9163C11.9167 33.5063 11.9374 46.1419 11.9581 54.155C11.9625 55.8271 11.9668 57.2977 11.9709 58.7055C11.9864 63.9519 11.9992 68.3259 12 79H8.09895C4.36569 79 1 75.1748 1 69.9912V10.0088C1 4.8252 4.36569 1 8.09895 1Z" fill="#2970D7" stroke="#2970D7" stroke-width="2"/>
<path d="M257.901 79H254.084C254.083 46.4937 254.063 33.8581 254.042 25.845C254.038 24.1729 254.033 22.7023 254.029 21.2945C254.014 16.0481 254.001 11.6741 254 1H257.901C261.634 1 265 4.8252 265 10.0088V69.9912C265 75.1748 261.634 79 257.901 79Z" fill="#2970D7" stroke="#2970D7" stroke-width="2"/>
<circle cx="6.5" cy="40.5" r="3.5" fill="white"/>
<circle cx="259.5" cy="40.5" r="3.5" fill="white"/>
</svg>
