<svg width="16" height="16" viewBox="0 0 16 16" fill="none" xmlns="http://www.w3.org/2000/svg">
<path d="M14.2303 2.83032C14.5232 2.53742 14.5232 2.06255 14.2303 1.76966C13.9374 1.47676 13.4625 1.47676 13.1696 1.76966L14.2303 2.83032ZM1.63624 13.6137C1.63624 14.0279 1.97203 14.3637 2.38624 14.3637L9.13624 14.3637C9.55046 14.3637 9.88624 14.0279 9.88624 13.6137C9.88624 13.1995 9.55046 12.8637 9.13624 12.8637H3.13624V6.8637C3.13624 6.44948 2.80046 6.1137 2.38624 6.1137C1.97203 6.1137 1.63624 6.44948 1.63624 6.8637L1.63624 13.6137ZM13.1696 1.76966L1.85591 13.0834L2.91657 14.144L14.2303 2.83032L13.1696 1.76966Z" fill="#359766"/>
</svg>
