<svg width="17" height="17" viewBox="0 0 17 17" fill="none" xmlns="http://www.w3.org/2000/svg">
<path d="M13.2534 5.10719C13.1876 5.0408 13.1092 4.9881 13.0229 4.95214C12.9366 4.91618 12.844 4.89766 12.7505 4.89766C12.657 4.89766 12.5644 4.91618 12.4781 4.95214C12.3918 4.9881 12.3134 5.0408 12.2476 5.10719L6.97052 10.3913L4.75344 8.16718C4.68507 8.10114 4.60436 8.04921 4.51593 8.01435C4.42749 7.9795 4.33305 7.96241 4.238 7.96405C4.14296 7.9657 4.04917 7.98605 3.96199 8.02394C3.87481 8.06183 3.79595 8.11652 3.7299 8.18489C3.66386 8.25326 3.61193 8.33397 3.57707 8.42241C3.54222 8.51085 3.52513 8.60528 3.52677 8.70033C3.52842 8.79537 3.54877 8.88916 3.58666 8.97634C3.62455 9.06352 3.67924 9.14239 3.74761 9.20843L6.46761 11.9284C6.53346 11.9948 6.6118 12.0475 6.69812 12.0835C6.78443 12.1194 6.87702 12.1379 6.97052 12.1379C7.06403 12.1379 7.15661 12.1194 7.24293 12.0835C7.32925 12.0475 7.40759 11.9948 7.47344 11.9284L13.2534 6.14843C13.3253 6.0821 13.3827 6.0016 13.422 5.912C13.4612 5.82239 13.4815 5.72563 13.4815 5.62781C13.4815 5.52999 13.4612 5.43323 13.422 5.34362C13.3827 5.25402 13.3253 5.17352 13.2534 5.10719Z" fill="white"/>
</svg>
