<svg width="32" height="32" viewBox="0 0 32 32" fill="none" xmlns="http://www.w3.org/2000/svg">
<path d="M15.9998 2.66669C14.2489 2.66669 12.515 3.01156 10.8974 3.68163C9.2797 4.35169 7.80985 5.33382 6.57173 6.57193C4.07125 9.07242 2.66649 12.4638 2.66649 16C2.65483 19.0789 3.72088 22.0647 5.67982 24.44L3.01315 27.1067C2.82814 27.2942 2.70282 27.5323 2.65298 27.7909C2.60315 28.0496 2.63105 28.3172 2.73315 28.56C2.8439 28.7999 3.02343 29.0015 3.24895 29.1392C3.47447 29.2769 3.73582 29.3445 3.99982 29.3334H15.9998C19.536 29.3334 22.9274 27.9286 25.4279 25.4281C27.9284 22.9276 29.3332 19.5362 29.3332 16C29.3332 12.4638 27.9284 9.07242 25.4279 6.57193C22.9274 4.07144 19.536 2.66669 15.9998 2.66669ZM15.9998 26.6667H7.21315L8.45316 25.4267C8.70149 25.1769 8.84088 24.8389 8.84088 24.4867C8.84088 24.1344 8.70149 23.7965 8.45316 23.5467C6.70727 21.8027 5.62005 19.5074 5.37674 17.0517C5.13343 14.5961 5.74908 12.132 7.11879 10.0794C8.4885 8.02674 10.5275 6.5125 12.8885 5.79465C15.2495 5.0768 17.7863 5.19976 20.0668 6.14257C22.3473 7.08538 24.2303 8.78972 25.3951 10.9652C26.5599 13.1407 26.9343 15.6527 26.4547 18.0734C25.975 20.494 24.6709 22.6734 22.7645 24.2403C20.8582 25.8073 18.4675 26.6647 15.9998 26.6667ZM22.6665 14.6667H9.33315C8.97953 14.6667 8.64039 14.8072 8.39035 15.0572C8.1403 15.3073 7.99982 15.6464 7.99982 16C7.99982 16.3536 8.1403 16.6928 8.39035 16.9428C8.64039 17.1929 8.97953 17.3334 9.33315 17.3334H22.6665C23.0201 17.3334 23.3593 17.1929 23.6093 16.9428C23.8593 16.6928 23.9998 16.3536 23.9998 16C23.9998 15.6464 23.8593 15.3073 23.6093 15.0572C23.3593 14.8072 23.0201 14.6667 22.6665 14.6667ZM19.9998 20H11.9998C11.6462 20 11.3071 20.1405 11.057 20.3905C10.807 20.6406 10.6665 20.9797 10.6665 21.3334C10.6665 21.687 10.807 22.0261 11.057 22.2762C11.3071 22.5262 11.6462 22.6667 11.9998 22.6667H19.9998C20.3534 22.6667 20.6926 22.5262 20.9426 22.2762C21.1927 22.0261 21.3332 21.687 21.3332 21.3334C21.3332 20.9797 21.1927 20.6406 20.9426 20.3905C20.6926 20.1405 20.3534 20 19.9998 20ZM11.9998 12H19.9998C20.3534 12 20.6926 11.8595 20.9426 11.6095C21.1927 11.3594 21.3332 11.0203 21.3332 10.6667C21.3332 10.3131 21.1927 9.97393 20.9426 9.72388C20.6926 9.47383 20.3534 9.33335 19.9998 9.33335H11.9998C11.6462 9.33335 11.3071 9.47383 11.057 9.72388C10.807 9.97393 10.6665 10.3131 10.6665 10.6667C10.6665 11.0203 10.807 11.3594 11.057 11.6095C11.3071 11.8595 11.6462 12 11.9998 12Z" fill="#4D90FF"/>
</svg>
