<svg width="16" height="16" viewBox="0 0 16 16" fill="none" xmlns="http://www.w3.org/2000/svg">
<path d="M8.28659 2.73327C8.17832 2.68643 8.05957 2.66916 7.94245 2.68322C7.82532 2.69727 7.71403 2.74215 7.61992 2.81327L4.43325 5.33327H1.99992C1.82311 5.33327 1.65354 5.40351 1.52851 5.52854C1.40349 5.65356 1.33325 5.82313 1.33325 5.99994V9.99994C1.33325 10.1768 1.40349 10.3463 1.52851 10.4713C1.65354 10.5964 1.82311 10.6666 1.99992 10.6666H4.43325L7.58659 13.1866C7.70388 13.2807 7.84954 13.3324 7.99992 13.3333C8.0995 13.3349 8.19795 13.312 8.28659 13.2666C8.40003 13.2126 8.4959 13.1276 8.56313 13.0214C8.63037 12.9153 8.66623 12.7923 8.66659 12.6666V3.33327C8.66623 3.20762 8.63037 3.08462 8.56313 2.97846C8.4959 2.8723 8.40003 2.78731 8.28659 2.73327ZM7.33325 11.2799L5.07992 9.47994C4.96263 9.38583 4.81696 9.33415 4.66659 9.33327H2.66659V6.66661H4.66659C4.81696 6.66573 4.96263 6.61405 5.07992 6.51994L7.33325 4.71994V11.2799ZM13.2733 7.99994L14.4733 6.80661C14.5354 6.74445 14.5847 6.67065 14.6184 6.58944C14.652 6.50822 14.6693 6.42118 14.6693 6.33327C14.6693 6.24537 14.652 6.15832 14.6184 6.07711C14.5847 5.99589 14.5354 5.9221 14.4733 5.85994C14.4111 5.79778 14.3373 5.74847 14.2561 5.71483C14.1749 5.68119 14.0878 5.66388 13.9999 5.66388C13.912 5.66388 13.825 5.68119 13.7438 5.71483C13.6625 5.74847 13.5887 5.79778 13.5266 5.85994L12.3333 7.05994L11.1399 5.85994C11.0144 5.7344 10.8441 5.66388 10.6666 5.66388C10.4891 5.66388 10.3188 5.7344 10.1933 5.85994C10.0677 5.98548 9.99719 6.15574 9.99719 6.33327C9.99719 6.51081 10.0677 6.68107 10.1933 6.80661L11.3933 7.99994L10.1933 9.19327C10.1308 9.25525 10.0812 9.32898 10.0473 9.41022C10.0135 9.49146 9.99605 9.5786 9.99605 9.66661C9.99605 9.75461 10.0135 9.84175 10.0473 9.92299C10.0812 10.0042 10.1308 10.078 10.1933 10.1399C10.2552 10.2024 10.329 10.252 10.4102 10.2859C10.4914 10.3197 10.5786 10.3371 10.6666 10.3371C10.7546 10.3371 10.8417 10.3197 10.923 10.2859C11.0042 10.252 11.0779 10.2024 11.1399 10.1399L12.3333 8.93994L13.5266 10.1399C13.5886 10.2024 13.6623 10.252 13.7435 10.2859C13.8248 10.3197 13.9119 10.3371 13.9999 10.3371C14.0879 10.3371 14.1751 10.3197 14.2563 10.2859C14.3375 10.252 14.4113 10.2024 14.4733 10.1399C14.5357 10.078 14.5853 10.0042 14.6192 9.92299C14.653 9.84175 14.6705 9.75461 14.6705 9.66661C14.6705 9.5786 14.653 9.49146 14.6192 9.41022C14.5853 9.32898 14.5357 9.25525 14.4733 9.19327L13.2733 7.99994Z" fill="#75839D"/>
</svg>
