<svg width="20" height="20" viewBox="0 0 20 20" fill="none" xmlns="http://www.w3.org/2000/svg">
<path d="M14.45 4.54999C14.2522 4.54999 14.0589 4.60864 13.8944 4.71852C13.73 4.8284 13.6018 4.98458 13.5261 5.16731C13.4504 5.35003 13.4306 5.5511 13.4692 5.74508C13.5078 5.93906 13.603 6.11724 13.7429 6.2571C13.8827 6.39695 14.0609 6.49219 14.2549 6.53078C14.4489 6.56936 14.65 6.54956 14.8327 6.47387C15.0154 6.39818 15.1716 6.27001 15.2815 6.10556C15.3913 5.94111 15.45 5.74777 15.45 5.54999C15.45 5.28477 15.3446 5.03042 15.1571 4.84288C14.9696 4.65535 14.7152 4.54999 14.45 4.54999ZM18.2833 6.56666C18.2671 5.87524 18.1376 5.19116 17.9 4.54166C17.6881 3.98593 17.3583 3.48272 16.9333 3.06666C16.5207 2.63951 16.0163 2.3118 15.4583 2.10832C14.8105 1.86346 14.1257 1.731 13.4333 1.71666C12.55 1.66666 12.2667 1.66666 10 1.66666C7.73333 1.66666 7.45 1.66666 6.56666 1.71666C5.87429 1.731 5.18945 1.86346 4.54166 2.10832C3.98473 2.31386 3.48078 2.64129 3.06666 3.06666C2.63952 3.4793 2.31181 3.98369 2.10833 4.54166C1.86346 5.18944 1.73101 5.87428 1.71666 6.56666C1.66666 7.44999 1.66666 7.73332 1.66666 9.99999C1.66666 12.2667 1.66666 12.55 1.71666 13.4333C1.73101 14.1257 1.86346 14.8105 2.10833 15.4583C2.31181 16.0163 2.63952 16.5207 3.06666 16.9333C3.48078 17.3587 3.98473 17.6861 4.54166 17.8917C5.18945 18.1365 5.87429 18.269 6.56666 18.2833C7.45 18.3333 7.73333 18.3333 10 18.3333C12.2667 18.3333 12.55 18.3333 13.4333 18.2833C14.1257 18.269 14.8105 18.1365 15.4583 17.8917C16.0163 17.6882 16.5207 17.3605 16.9333 16.9333C17.3602 16.5188 17.6903 16.0152 17.9 15.4583C18.1376 14.8088 18.2671 14.1247 18.2833 13.4333C18.2833 12.55 18.3333 12.2667 18.3333 9.99999C18.3333 7.73332 18.3333 7.44999 18.2833 6.56666ZM16.7833 13.3333C16.7773 13.8623 16.6815 14.3864 16.5 14.8833C16.3669 15.246 16.1532 15.5737 15.875 15.8417C15.6047 16.1171 15.2777 16.3304 14.9167 16.4667C14.4197 16.6481 13.8956 16.7439 13.3667 16.75C12.5333 16.7917 12.225 16.8 10.0333 16.8C7.84166 16.8 7.53333 16.8 6.7 16.75C6.15074 16.7603 5.60383 16.6757 5.08333 16.5C4.73815 16.3567 4.42613 16.144 4.16666 15.875C3.89007 15.6073 3.67903 15.2793 3.55 14.9167C3.34654 14.4126 3.2337 13.8766 3.21666 13.3333C3.21666 12.5 3.16666 12.1917 3.16666 9.99999C3.16666 7.80832 3.16666 7.49999 3.21666 6.66666C3.2204 6.12587 3.31912 5.58994 3.50833 5.08332C3.65504 4.73158 3.88022 4.41804 4.16666 4.16666C4.41984 3.88013 4.73274 3.65257 5.08333 3.49999C5.59129 3.31669 6.12666 3.22089 6.66666 3.21666C7.5 3.21666 7.80833 3.16666 10 3.16666C12.1917 3.16666 12.5 3.16666 13.3333 3.21666C13.8623 3.22272 14.3864 3.31853 14.8833 3.49999C15.262 3.64053 15.6019 3.86903 15.875 4.16666C16.1481 4.42264 16.3615 4.7356 16.5 5.08332C16.6852 5.59077 16.7811 6.12647 16.7833 6.66666C16.825 7.49999 16.8333 7.80832 16.8333 9.99999C16.8333 12.1917 16.825 12.5 16.7833 13.3333ZM10 5.72499C9.15484 5.72664 8.32913 5.97876 7.62721 6.4495C6.92529 6.92025 6.37865 7.58849 6.05636 8.36978C5.73407 9.15108 5.6506 10.0104 5.81649 10.8391C5.98238 11.6678 6.39019 12.4288 6.98839 13.0258C7.58659 13.6228 8.34834 14.0292 9.17738 14.1934C10.0064 14.3577 10.8656 14.2726 11.6462 13.9488C12.4269 13.625 13.0941 13.077 13.5634 12.3742C14.0328 11.6713 14.2833 10.8451 14.2833 9.99999C14.2844 9.43758 14.1743 8.8805 13.9594 8.36079C13.7444 7.84108 13.4288 7.369 13.0307 6.9717C12.6326 6.5744 12.16 6.25972 11.6398 6.04576C11.1197 5.83181 10.5624 5.72279 10 5.72499ZM10 12.775C9.45115 12.775 8.91464 12.6122 8.45829 12.3073C8.00194 12.0024 7.64627 11.569 7.43623 11.0619C7.2262 10.5549 7.17124 9.99691 7.27832 9.45861C7.38539 8.92032 7.64969 8.42586 8.03778 8.03777C8.42587 7.64968 8.92032 7.38539 9.45862 7.27831C9.99692 7.17124 10.5549 7.22619 11.0619 7.43622C11.569 7.64626 12.0024 8.00194 12.3073 8.45828C12.6122 8.91463 12.775 9.45115 12.775 9.99999C12.775 10.3644 12.7032 10.7253 12.5638 11.0619C12.4243 11.3986 12.2199 11.7045 11.9622 11.9622C11.7045 12.2199 11.3986 12.4243 11.0619 12.5638C10.7253 12.7032 10.3644 12.775 10 12.775Z" fill="#0061FF"/>
</svg>
