<svg width="32" height="32" viewBox="0 0 32 32" fill="none" xmlns="http://www.w3.org/2000/svg">
<path d="M28.8666 2.98672C28.7213 2.862 28.5508 2.77005 28.3667 2.71713C28.1827 2.66421 27.9893 2.65157 27.8 2.68006L10.4666 5.34672C10.151 5.39461 9.86298 5.55418 9.65501 5.79641C9.44703 6.03864 9.33287 6.34746 9.33329 6.66672V20.4667C8.71031 20.1624 8.02661 20.0029 7.33329 20.0001C6.41032 20.0001 5.50806 20.2738 4.74063 20.7865C3.9732 21.2993 3.37507 22.0281 3.02186 22.8809C2.66865 23.7336 2.57623 24.6719 2.7563 25.5771C2.93636 26.4824 3.38082 27.3139 4.03346 27.9666C4.68611 28.6192 5.51763 29.0637 6.42287 29.2437C7.32812 29.4238 8.26643 29.3314 9.11915 28.9782C9.97187 28.625 10.7007 28.0268 11.2135 27.2594C11.7263 26.492 12 25.5897 12 24.6667V14.4801L26.6666 12.2267V17.8001C26.0436 17.4958 25.3599 17.3362 24.6666 17.3334C23.7436 17.3334 22.8414 17.6071 22.074 18.1199C21.3065 18.6326 20.7084 19.3615 20.3552 20.2142C20.002 21.0669 19.9096 22.0052 20.0896 22.9105C20.2697 23.8157 20.7141 24.6472 21.3668 25.2999C22.0194 25.9525 22.851 26.397 23.7562 26.5771C24.6615 26.7571 25.5998 26.6647 26.4525 26.3115C27.3052 25.9583 28.034 25.3601 28.5468 24.5927C29.0596 23.8253 29.3333 22.923 29.3333 22.0001V4.00006C29.3333 3.80747 29.2916 3.61717 29.211 3.44224C29.1305 3.26731 29.013 3.11191 28.8666 2.98672ZM7.33329 26.6667C6.93773 26.6667 6.55105 26.5494 6.22215 26.3297C5.89326 26.1099 5.63691 25.7975 5.48554 25.4321C5.33416 25.0666 5.29455 24.6645 5.37172 24.2765C5.44889 23.8886 5.63938 23.5322 5.91908 23.2525C6.19879 22.9728 6.55515 22.7823 6.94311 22.7052C7.33108 22.628 7.73321 22.6676 8.09866 22.819C8.46411 22.9703 8.77647 23.2267 8.99623 23.5556C9.216 23.8845 9.33329 24.2712 9.33329 24.6667C9.33329 25.1972 9.12258 25.7059 8.74751 26.0809C8.37244 26.456 7.86373 26.6667 7.33329 26.6667ZM24.6666 24.0001C24.2711 24.0001 23.8844 23.8828 23.5555 23.663C23.2266 23.4432 22.9702 23.1309 22.8189 22.7654C22.6675 22.4 22.6279 21.9978 22.7051 21.6099C22.7822 21.2219 22.9727 20.8655 23.2524 20.5858C23.5321 20.3061 23.8885 20.1157 24.2764 20.0385C24.6644 19.9613 25.0665 20.0009 25.432 20.1523C25.7974 20.3037 26.1098 20.56 26.3296 20.8889C26.5493 21.2178 26.6666 21.6045 26.6666 22.0001C26.6666 22.5305 26.4559 23.0392 26.0808 23.4143C25.7058 23.7893 25.1971 24.0001 24.6666 24.0001ZM26.6666 9.52006L12 11.7734V7.77339L26.6666 5.56006V9.52006Z" fill="#75839D"/>
</svg>
