<svg width="24" height="24" viewBox="0 0 24 24" fill="none" xmlns="http://www.w3.org/2000/svg">
<path d="M3.33005 18.15C3.73458 18.3883 4.19554 18.514 4.66505 18.514C5.13457 18.514 5.59552 18.3883 6.00005 18.15L10.0001 15.85C10.001 16.3178 10.1247 16.7771 10.359 17.1819C10.5932 17.5868 10.9297 17.923 11.3348 18.157C11.7399 18.3909 12.1993 18.5143 12.667 18.5148C13.1348 18.5154 13.5945 18.393 14.0001 18.16L20.6701 14.31C21.0749 14.0753 21.4109 13.7384 21.6445 13.333C21.8781 12.9276 22.0011 12.4679 22.0011 12C22.0011 11.5321 21.8781 11.0724 21.6445 10.667C21.4109 10.2616 21.0749 9.92464 20.6701 9.69L14.0001 5.84C13.5945 5.60467 13.1339 5.48073 12.6651 5.48073C12.1962 5.48073 11.7356 5.60467 11.3301 5.84C10.9241 6.07322 10.5871 6.40984 10.3535 6.8156C10.1199 7.22137 9.99791 7.68179 10.0001 8.15L6.00005 5.84C5.59549 5.60657 5.13712 5.4825 4.67005 5.48C4.19815 5.47992 3.73506 5.60779 3.33005 5.85C2.92415 6.08079 2.58701 6.41549 2.35327 6.81971C2.11953 7.22392 1.99761 7.68307 2.00005 8.15L2.00005 15.85C1.99761 16.3169 2.11953 16.7761 2.35327 17.1803C2.58701 17.5845 2.92415 17.9192 3.33005 18.15ZM12.0001 8.15C11.9986 8.03272 12.0283 7.91716 12.0864 7.81522C12.1444 7.71328 12.2285 7.62863 12.3301 7.57C12.4325 7.51308 12.5478 7.48322 12.6651 7.48322C12.7823 7.48322 12.8976 7.51308 13.0001 7.57L19.6701 11.42C19.7718 11.4788 19.8563 11.5634 19.915 11.6652C19.9737 11.767 20.0046 11.8825 20.0046 12C20.0046 12.1175 19.9737 12.233 19.915 12.3348C19.8563 12.4366 19.7718 12.5212 19.6701 12.58L13.0001 16.43C12.8982 16.4888 12.7827 16.5198 12.6651 16.5198C12.5474 16.5198 12.4319 16.4888 12.3301 16.43C12.2285 16.3714 12.1444 16.2867 12.0864 16.1848C12.0284 16.0828 11.9986 15.9673 12.0001 15.85L12.0001 8.15ZM4.00005 8.15C4.00231 8.03399 4.03465 7.92056 4.09392 7.8208C4.15318 7.72105 4.23734 7.6384 4.33814 7.58094C4.43894 7.52348 4.55294 7.49319 4.66897 7.49302C4.785 7.49286 4.89909 7.52283 5.00005 7.58L10.0001 10.46L10.0001 13.54L5.00005 16.42C4.89909 16.4772 4.785 16.5071 4.66897 16.507C4.55294 16.5068 4.43894 16.4765 4.33814 16.4191C4.23734 16.3616 4.15318 16.2789 4.09392 16.1792C4.03465 16.0794 4.00231 15.966 4.00005 15.85L4.00005 8.15Z" fill="#75839D"/>
</svg>
