<svg width="9" height="13" viewBox="0 0 9 13" fill="none" xmlns="http://www.w3.org/2000/svg">
<g clip-path="url(#clip0_1513_4545)">
<path d="M2.31754e-05 6.49996C2.31754e-05 6.26698 0.0977241 6.03402 0.292731 5.85639L6.43217 0.266683C6.82271 -0.0888943 7.45592 -0.0888943 7.84631 0.266683C8.23669 0.622119 8.23669 1.19851 7.84631 1.55412L2.41379 6.49996L7.84611 11.4458C8.2365 11.8014 8.2365 12.3777 7.84611 12.7332C7.45573 13.0889 6.82253 13.0889 6.43198 12.7332L0.292529 7.14353C0.097502 6.96581 2.31754e-05 6.73286 2.31754e-05 6.49995V6.49996Z" fill="#222B45"/>
</g>
<defs>
<clipPath id="clip0_1513_4545">
<rect width="12.8388" height="8.03819" fill="white" transform="matrix(0 1.01255 -1.01255 0 8.13909 0)"/>
</clipPath>
</defs>
</svg>
