<svg width="16" height="16" viewBox="0 0 16 16" fill="none" xmlns="http://www.w3.org/2000/svg">
<path d="M12.6665 7.33341H8.6665V3.33341C8.6665 2.93341 8.39984 2.66675 7.99984 2.66675C7.59984 2.66675 7.33317 2.93341 7.33317 3.33341V7.33341H3.33317C2.93317 7.33341 2.6665 7.60008 2.6665 8.00008C2.6665 8.40008 2.93317 8.66675 3.33317 8.66675H7.33317V12.6667C7.33317 13.0667 7.59984 13.3334 7.99984 13.3334C8.39984 13.3334 8.6665 13.0667 8.6665 12.6667V8.66675H12.6665C13.0665 8.66675 13.3332 8.40008 13.3332 8.00008C13.3332 7.60008 13.0665 7.33341 12.6665 7.33341Z" fill="#9EA8BA"/>
</svg>
