<svg width="32" height="32" viewBox="0 0 32 32" fill="none" xmlns="http://www.w3.org/2000/svg">
<path d="M9.33329 16C5.59996 16 2.66663 18.9333 2.66663 22.6667C2.66663 26.4 5.59996 29.3333 9.33329 29.3333C13.0666 29.3333 16 26.4 16 22.6667C16 18.9333 13.0666 16 9.33329 16ZM14.6666 9.33334C11.4666 9.33334 8.53329 11.3333 7.33329 14.2667C12 13.0667 16.6666 16 17.7333 20.5333C18.1333 21.8667 18.1333 23.3333 17.7333 24.6667C21.8666 22.9333 23.7333 18.2667 22 14.2667C20.8 11.3333 17.8666 9.33334 14.6666 9.33334ZM28.2666 7.73334C26.8 4.66667 23.4666 2.66667 20 2.66667C16.5333 2.66667 13.2 4.66667 11.7333 7.73334C17.0666 6.13334 22.6666 9.06667 24.2666 14.2667C24.9333 16.2667 24.9333 18.2667 24.2666 20.2667C28.8 18 30.6666 12.4 28.2666 7.73334Z" fill="#0061FF"/>
</svg>
