<svg width="27" height="27" viewBox="0 0 27 27" fill="none" xmlns="http://www.w3.org/2000/svg">
<path d="M3.85714 9.64286C1.79082 9.64286 0 11.2959 0 13.5C0 15.7041 1.65306 17.3571 3.85714 17.3571C6.06123 17.3571 7.71429 15.7041 7.71429 13.5C7.57653 11.4337 5.92347 9.78061 3.85714 9.64286ZM3.85714 0C1.79082 0 0 1.79082 0 3.85714C0 5.92347 1.79082 7.71429 3.85714 7.71429C5.92347 7.71429 7.71429 5.92347 7.71429 3.85714C7.57653 1.79082 5.92347 0.137755 3.85714 0ZM23.1429 7.71429C25.2092 7.71429 27 6.06123 27 3.85714C27 1.65306 25.2092 0 23.1429 0C21.0765 0 19.2857 1.79082 19.2857 3.85714C19.4235 5.92347 21.0765 7.57653 23.1429 7.71429ZM13.5 0C11.4337 0 9.64286 1.65306 9.64286 3.85714C9.64286 6.06123 11.2959 7.71429 13.5 7.71429C15.7041 7.71429 17.3571 6.06123 17.3571 3.85714C17.2194 1.79082 15.5663 0.137755 13.5 0ZM13.5 19.2857C11.4337 19.2857 9.64286 20.9388 9.64286 23.1429C9.64286 25.3469 11.2959 27 13.5 27C15.7041 27 17.3571 25.3469 17.3571 23.1429C17.2194 21.0765 15.5663 19.4235 13.5 19.2857ZM23.1429 9.64286C21.0765 9.64286 19.2857 11.2959 19.2857 13.5C19.2857 15.7041 20.9388 17.3571 23.1429 17.3571C25.3469 17.3571 27 15.7041 27 13.5C26.8622 11.4337 25.2092 9.78061 23.1429 9.64286ZM13.5 9.64286C11.4337 9.64286 9.64286 11.2959 9.64286 13.5C9.64286 15.7041 11.2959 17.3571 13.5 17.3571C15.7041 17.3571 17.3571 15.7041 17.3571 13.5C17.2194 11.4337 15.5663 9.78061 13.5 9.64286Z" fill="white"/>
</svg>
