<svg width="276" height="228" viewBox="0 0 276 228" fill="none" xmlns="http://www.w3.org/2000/svg">
<path d="M157.801 108.453L155.921 105.752H152.627C152.545 105.751 152.465 105.728 152.396 105.685C152.326 105.642 152.27 105.582 152.232 105.509C152.194 105.437 152.177 105.356 152.182 105.275C152.187 105.194 152.214 105.116 152.259 105.048L154.26 102.438L153.214 99.3078C153.186 99.2276 153.182 99.1414 153.201 99.059C153.221 98.9766 153.263 98.9013 153.324 98.8418C153.384 98.7823 153.46 98.741 153.544 98.7226C153.627 98.7043 153.713 98.7096 153.793 98.7379L156.91 99.8284L159.575 97.8937C159.643 97.8476 159.722 97.8209 159.804 97.8164C159.887 97.8119 159.968 97.8298 160.041 97.8681C160.114 97.9065 160.175 97.9639 160.217 98.0341C160.259 98.1043 160.282 98.1847 160.282 98.2666L160.204 101.545L162.89 103.529C162.958 103.578 163.011 103.645 163.043 103.723C163.074 103.8 163.084 103.885 163.07 103.968C163.056 104.05 163.019 104.127 162.964 104.19C162.908 104.253 162.836 104.299 162.756 104.324L159.596 105.267L158.578 108.39C158.546 108.463 158.494 108.525 158.429 108.571C158.364 108.616 158.288 108.644 158.208 108.65C158.129 108.657 158.049 108.642 157.978 108.607C157.906 108.573 157.845 108.52 157.801 108.453Z" fill="#F37458"/>
<path d="M244.816 48.9714L246.555 44.9684L244.222 41.2679C244.162 41.1734 244.13 41.0639 244.129 40.9521C244.129 40.8402 244.16 40.7305 244.218 40.6352C244.277 40.5399 244.362 40.463 244.463 40.4132C244.563 40.3634 244.676 40.3427 244.788 40.3534L249.156 40.7614L251.983 37.4056C252.056 37.3208 252.151 37.2577 252.258 37.2234C252.364 37.189 252.478 37.1847 252.587 37.2109C252.696 37.2371 252.796 37.2929 252.875 37.3719C252.954 37.451 253.01 37.5503 253.036 37.6589L253.997 41.9222L258.061 43.5473C258.165 43.5899 258.255 43.6603 258.322 43.7507C258.388 43.8411 258.427 43.948 258.436 44.0596C258.445 44.1711 258.423 44.2828 258.371 44.3824C258.32 44.482 258.242 44.5655 258.146 44.6237L254.372 46.8468L254.075 51.2015C254.067 51.3129 254.029 51.4199 253.963 51.5105C253.898 51.601 253.808 51.6715 253.704 51.714C253.6 51.7564 253.487 51.7691 253.376 51.7507C253.266 51.7323 253.163 51.6834 253.078 51.6096L249.785 48.7252L245.544 49.7945C245.433 49.8269 245.315 49.8272 245.204 49.7951C245.093 49.7631 244.993 49.7002 244.916 49.6138C244.84 49.5273 244.79 49.421 244.772 49.3072C244.754 49.1934 244.769 49.0769 244.816 48.9714Z" fill="#F8CC7F"/>
<path d="M17.6984 159.106L15.4649 154.885L10.6869 154.309C10.5638 154.294 10.4474 154.245 10.3507 154.168C10.254 154.091 10.1809 153.988 10.1398 153.872C10.0986 153.755 10.0909 153.63 10.1177 153.509C10.1444 153.389 10.2045 153.278 10.2911 153.19L13.6625 149.764L12.7437 145.036C12.7217 144.917 12.7335 144.793 12.7779 144.68C12.8224 144.567 12.8976 144.468 12.9952 144.395C13.0928 144.322 13.2089 144.278 13.3306 144.267C13.4522 144.256 13.5745 144.278 13.6837 144.333L17.9952 146.443L22.2361 144.115C22.3435 144.054 22.466 144.024 22.5896 144.029C22.7131 144.034 22.8327 144.074 22.9346 144.144C23.0365 144.214 23.1165 144.311 23.1655 144.424C23.2144 144.537 23.2304 144.661 23.2115 144.783L22.5047 149.532L26.0387 152.796C26.1285 152.88 26.1928 152.988 26.2244 153.107C26.2561 153.226 26.2538 153.351 26.2178 153.469C26.1818 153.587 26.1136 153.692 26.0208 153.773C25.9279 153.854 25.8142 153.908 25.6923 153.929L20.9426 154.724L18.8858 159.106C18.8325 159.218 18.7484 159.313 18.6433 159.379C18.5382 159.445 18.4164 159.48 18.2921 159.48C18.1678 159.48 18.046 159.445 17.9409 159.379C17.8358 159.313 17.7517 159.218 17.6984 159.106Z" fill="#A0BFE4"/>
<path d="M272.664 57.0407L272.713 59.3623L268.974 59.8618L268.635 63.2668L265.893 64.097L266.317 65.4829L269.978 64.3713L270.303 61.1422L274.198 60.6216L274.113 57.1251L272.664 57.0407Z" fill="#476EB5"/>
<path d="M65.3654 33.269C65.4725 32.5291 65.8674 31.8608 66.465 31.4081C67.0627 30.9553 67.8151 30.7545 68.5601 30.8489C69.1129 30.9259 69.6304 31.164 70.0475 31.5333C70.4646 31.9025 70.7625 32.3864 70.9037 32.9239C71.0449 33.4614 71.0231 34.0285 70.8411 34.5537C70.659 35.0789 70.3248 35.5387 69.8807 35.8751C69.4365 36.2116 68.9022 36.4097 68.3451 36.4444C67.788 36.4791 67.2331 36.3489 66.7502 36.0702C66.2673 35.7915 65.8782 35.3768 65.6317 34.8783C65.3853 34.3798 65.2926 33.8199 65.3654 33.269ZM66.8708 29.0972L67.6201 16.8631C67.6358 16.6233 67.7002 16.3891 67.8093 16.1748C67.9184 15.9604 68.0699 15.7702 68.2549 15.6158C68.4398 15.4613 68.6542 15.3457 68.8853 15.2759C69.1163 15.2061 69.3591 15.1836 69.5991 15.2098L70.8219 15.3435C71.0616 15.3709 71.2933 15.4463 71.5029 15.5652C71.7126 15.6841 71.8959 15.844 72.0419 16.0352C72.1878 16.2265 72.2934 16.4452 72.3521 16.6782C72.4109 16.9111 72.4217 17.1535 72.3839 17.3907L70.419 29.4911L66.8708 29.0972Z" fill="#F58D80"/>
<path d="M57.5694 94.8406C57.6542 97.8798 58.4387 104.387 65.3442 105.464C69.6345 106.132 75.1334 102.298 74.78 99.4768C74.4266 96.6557 73.6421 89.4799 69.1256 87.8407C65.4219 86.4688 57.3856 88.0517 57.5694 94.8406Z" fill="#194655"/>
<path d="M115.252 192.925C116.234 197.012 116.997 202.907 117.287 203.238C117.421 203.393 117.704 204.42 117.846 204.589C122.313 206.207 126.235 204.54 129.345 202.703C126.907 202.274 123.62 201.824 123.168 201.507C121.471 200.311 121.874 196.069 121.57 192.263C120.341 192.474 117.429 191.714 115.252 192.925Z" fill="#F8A491"/>
<path d="M117.195 203.006C117.195 204.617 118.262 208.064 118.609 208.057C118.955 208.05 132.412 206.896 133.678 204.849C134.434 203.618 132.37 203.294 129.366 202.739C126.235 204.54 117.562 204.012 117.195 203.006Z" fill="#476EB5"/>
<path d="M51.54 202.021C49.4257 203.676 47.2065 205.194 44.8961 206.566C44.7123 206.65 43.638 206.65 43.4401 206.734C40.6765 210.583 41.2419 214.797 42.182 218.265C43.2563 216.042 44.5144 212.939 45.0092 212.637C47.7651 211.053 50.6356 209.675 53.5968 208.514C51.8864 206.727 52.1267 204.455 51.54 202.021Z" fill="#F8A491"/>
<path d="M58.6084 116.671L49.0171 134.033L39.3056 146.183C40.0124 147.344 40.7192 148.533 41.32 149.75C44.5995 146.971 51.5898 141.068 54.0848 137.79C57.7673 132.971 64.4395 121.539 64.4395 121.539L58.6084 116.671Z" fill="#F8A491"/>
<path d="M84.1027 146.887L73.847 161.921C73.847 161.921 73.2603 160.908 76.9286 162.251C80.5969 163.595 104.289 167.992 105.696 169.652C106.685 170.834 114.036 193.959 115.449 196.928C117.57 197.793 120.68 196.836 122.864 196.519C123.005 185.383 117.075 165.093 115.499 162.751C111.965 157.432 95.1288 151.692 87.5519 148.469C86.3291 147.949 85.3749 147.478 84.7812 147.196C84.343 146.985 84.1027 146.887 84.1027 146.887Z" fill="#4D90FF"/>
<path d="M44.7123 206.622C43.1432 206.221 39.9413 206.228 39.8636 206.537C39.7859 206.847 37.2908 220.087 38.9306 221.846C39.9201 222.908 40.7824 221.016 42.1607 218.286C41.2419 214.818 43.6591 206.713 44.7123 206.622Z" fill="#476EB5"/>
<path d="M81.4095 157.489C81.5014 156.356 83.9328 149.75 84.788 147.189C84.788 147.105 84.1801 145.62 83.4945 143.482L82.5121 143.636L67.9307 144.298C67.9307 144.298 62.0572 154.147 62.7428 158.706C63.697 165.037 72.8925 187.55 71.493 188.605C68.9697 190.519 56.6007 197.652 50.2465 201.894C50.6564 204.343 51.7944 207.762 53.3494 209.717C58.5232 207.924 80.8723 198.961 83.1694 192.08C85.1979 186.002 81.261 159.409 81.4095 157.489Z" fill="#4D90FF"/>
<path d="M81.1763 102.002C81.1763 102.002 77.1616 108.285 74.8151 108.51L83.1907 116.248C83.1907 116.248 88.8946 107.736 89.4883 106.273C89.4671 106.245 84.2933 101.644 81.1763 102.002Z" fill="#F8CC7F"/>
<path d="M84.1097 139.95C83.9449 142.385 84.1836 144.831 84.8165 147.189C81.4521 147.892 69.5142 149.426 66.5951 145.887C66.4891 145.761 70.7299 138.318 70.1292 135.278C69.2669 130.797 65.5279 123.199 65.1815 122.791C64.6656 122.088 62.7501 125.647 62.7501 125.647C60.5096 125.647 55.3852 120.476 55.3852 120.476C55.3852 120.476 60.6863 111.275 62.1493 110.409C63.6124 109.544 75.6705 108.242 75.6776 108.242C76.5611 108.172 78.9854 110.269 79.6569 110.93C87.3116 118.5 85.2618 129.348 84.1097 139.95Z" fill="#F9E0B2"/>
<path d="M68.9134 104.38C68.9134 104.38 70.228 108.7 70.2351 110.459C70.2422 112.217 70.9419 114.609 74.6526 114.25C78.3634 113.892 75.317 110.177 74.794 108.51C74.2816 106.218 73.8947 103.9 73.6348 101.566L68.9134 104.38Z" fill="#F8A491"/>
<path d="M73.9882 104.233C73.7833 102.79 73.6348 101.587 73.6348 101.587L68.9134 104.401C68.9134 104.401 69.182 105.288 69.4788 106.413C70.3646 106.556 71.2729 106.423 72.0799 106.032C72.8869 105.642 73.5533 105.014 73.9882 104.233Z" fill="#F37458"/>
<path d="M65.0614 91.3299C63.8029 92.2981 62.9352 93.6835 62.6159 95.2344C62.114 97.7811 63.6407 104.078 69.1326 105.084C74.6245 106.09 76.4197 100.785 74.9142 96.9439C73.4087 93.1028 70.4896 88.3329 65.0614 91.3299Z" fill="#F8A491"/>
<path d="M75.423 95.3329C75.423 96.4023 74.9212 97.2746 74.2922 97.2746C73.6631 97.2746 73.1542 96.4164 73.1471 95.34C73.1401 94.2636 73.649 93.3983 74.278 93.3983C74.9071 93.3983 75.416 94.2566 75.423 95.3329Z" fill="#F8A491"/>
<path d="M65.0046 100.673C65.7114 101.531 65.8386 102.628 65.252 103.114C64.6654 103.599 63.6052 103.297 62.8842 102.41C62.1633 101.524 62.0431 100.455 62.6298 99.9692C63.2164 99.4837 64.2766 99.8074 65.0046 100.673Z" fill="#F8A491"/>
<path d="M59.4282 88.9239C59.6402 85.9903 61.7324 75.0506 55.0107 74.0165C48.289 72.9823 46.8329 80.3129 43.1364 70.4637C39.6801 61.3532 29.4244 64.8848 29.0003 71.8004C28.0043 71.7115 27.0016 71.8686 26.0812 72.2577C24.4813 72.9885 23.2378 74.3207 22.623 75.9625C22.0083 77.6043 22.0725 79.4217 22.8016 81.0164C23.0278 81.5722 22.9006 82.1139 23.2398 82.5712C22.4553 85.5822 22.9995 89.0294 25.3602 92.5259C31.7215 102.087 38.1463 92.0264 42.4649 92.5259C46.7835 93.0254 43.9704 96.4163 47.7094 99.0405C51.4484 101.665 54.4594 100.975 60.5449 93.8274L62.0434 91.8505C61.668 91.863 61.2944 91.7931 60.9493 91.6457C60.6041 91.4983 60.2957 91.2771 60.0461 90.9978C59.7965 90.7184 59.6118 90.3878 59.505 90.0294C59.3982 89.671 59.3719 89.2936 59.4282 88.9239Z" fill="#194655"/>
<path d="M248.307 172.199C250.626 171.238 252.876 170.122 255.043 168.857C255.319 168.709 256.457 167.872 256.626 167.753C259.595 169.512 260.676 171.01 262.987 173.381C261.256 173.472 260.528 172.058 259.863 172.206C259.065 172.382 256.541 174.063 252.605 177.131C251.947 174.886 249.961 173.782 248.307 172.199Z" fill="#F8A492"/>
<path d="M200.633 206.552C201.181 208.967 201.965 211.323 202.973 213.587C203.05 213.763 203.573 213.896 203.679 214.079C201.446 216.696 200.478 221.058 197.764 222.965C197.961 221.248 199.113 218.04 199.078 217.337C199.036 216.52 197.792 213.77 195.438 209.394C197.707 209.105 198.795 207.916 200.633 206.552Z" fill="#F8A492"/>
<path d="M202.047 214.304C202.119 214.112 202.23 213.936 202.373 213.789C202.516 213.641 202.688 213.524 202.878 213.446C203.068 213.367 203.273 213.328 203.479 213.332C203.685 213.336 203.888 213.382 204.076 213.467C204.782 213.917 205.758 214.417 206.472 214.909C206.714 215.039 206.919 215.229 207.066 215.461C207.214 215.693 207.298 215.958 207.313 216.232C207.256 216.64 197.736 227.72 196.52 227.882C195.304 228.044 197.552 218.673 198.895 217.709C200.082 216.851 200.676 217.737 202.047 214.304Z" fill="#4D90FF"/>
<path d="M256.343 168.864C256.17 168.76 256.019 168.621 255.901 168.457C255.783 168.292 255.699 168.106 255.656 167.909C255.612 167.711 255.609 167.507 255.647 167.309C255.685 167.11 255.763 166.921 255.877 166.754C256.457 166.128 257.114 165.276 257.736 164.643C257.906 164.428 258.13 164.26 258.386 164.158C258.641 164.056 258.919 164.022 259.192 164.059C259.581 164.186 268.833 175.491 268.769 176.723C268.705 177.954 259.856 174.063 259.142 172.579C258.506 171.242 259.489 170.82 256.343 168.864Z" fill="#4D90FF"/>
<path d="M204.28 165.255C204.28 165.255 223.053 190.434 226.318 190.666C229.372 190.884 253.05 177.743 253.05 177.743L249.968 170.961L231.012 177.743L217.809 152.873L204.28 165.255Z" fill="#B85742"/>
<path d="M215.087 143.974C215.087 143.974 218.522 144.79 220.487 150.003C222.452 155.216 219.166 159.55 210.931 167.099C202.916 174.457 195.007 181.366 195.007 181.366L201.503 207.994L196.103 212.574C196.103 212.574 183.585 185.488 183.246 179.044C183.112 176.589 202.33 148.047 202.33 148.047L215.087 143.974Z" fill="#F37458"/>
<path d="M200.563 111.373L190.095 117.198L181.832 121.166C181.832 121.166 179.804 114.314 180.482 110.951C180.654 110.477 180.908 110.037 181.232 109.65C182.596 107.609 179.677 104.437 179.677 104.437C179.677 104.437 177.917 103.937 176.715 106.829C175.514 109.72 177.733 110.951 177.733 110.951C177.733 110.951 175.21 119.703 176.263 126.084C176.821 129.425 185.218 126.977 191.904 124.093C195.27 122.648 198.519 120.947 201.623 119.006L200.563 111.373Z" fill="#F8A491"/>
<path d="M202.916 110.374C202.752 110.242 202.553 110.161 202.343 110.141C202.133 110.121 201.922 110.163 201.736 110.261C200.442 110.747 187.875 117.613 187.875 117.613C187.875 117.613 189.006 123.621 191.947 125.471L198.308 123.544L203.149 111.366C203.215 111.196 203.227 111.011 203.186 110.834C203.144 110.658 203.05 110.497 202.916 110.374Z" fill="#4D90FF"/>
<path d="M231.839 84.6817C227.075 81.7762 221.124 82.339 217.582 86.2435C214.681 85.148 211.462 85.239 208.627 86.4968C203.298 88.9732 198.577 95.4455 202.598 100.145C201.743 106.385 205.489 109.994 210.161 110.423C212.706 115.496 221.703 116.016 226.884 111.83C231.167 113.477 236.249 112.773 239.409 109.72C240.076 109.005 240.784 108.328 241.529 107.694C241.225 107.841 253.453 106.23 252.894 95.5018C252.329 84.534 239.168 80.3129 231.839 84.6817Z" fill="#F58761"/>
<path d="M210.168 109.544L217.943 109.966L216.65 120.765C216.65 120.765 212.903 131.156 214.43 136.151C215.957 141.146 217.434 144.783 217.434 144.783C217.434 144.783 213.017 149.834 200.633 148.8C200.633 148.8 200.796 139.844 200.633 137.129C200.471 134.413 197.304 123.115 197.743 120.568C198.181 118.021 200.916 110.951 201.623 110.36C202.33 109.769 205.157 109.46 205.157 109.46L210.168 109.544Z" fill="#4D90FF"/>
<path d="M210.536 103.613C210.536 103.613 210.401 104.486 210.274 105.604C210.081 106.977 210.024 108.365 210.105 109.748C210.345 111.465 208.691 116.002 205.044 116.164C201.397 116.326 204.966 111.155 205.242 109.453C205.517 107.75 205.517 101.524 205.517 101.524L210.536 103.613Z" fill="#F8A491"/>
<path d="M205.546 104.162C205.546 102.72 205.546 101.524 205.546 101.524L210.564 103.635C210.564 103.635 210.43 104.535 210.295 105.682C209.443 105.951 208.528 105.949 207.677 105.677C206.826 105.404 206.081 104.875 205.546 104.162Z" fill="#F37458"/>
<path d="M210.917 90.7883C212.309 91.3622 213.451 92.4093 214.14 93.743C215.243 95.9521 215.441 102.087 210.67 104.373C205.899 106.66 202.895 102.263 203.326 98.3792C203.757 94.4958 205.192 89.4164 210.917 90.7883Z" fill="#F8A491"/>
<path d="M202.457 97.0496C202.725 98.0275 203.404 98.6959 203.977 98.5481C204.549 98.4004 204.803 97.4717 204.535 96.4868C204.266 95.5019 203.588 94.8336 203.015 94.9883C202.443 95.1431 202.188 96.0647 202.457 97.0496Z" fill="#F8A491"/>
<path d="M213.561 99.1461C213.122 100.117 213.299 101.144 213.957 101.447C214.614 101.749 215.504 101.193 215.95 100.23C216.395 99.2657 216.218 98.2245 215.561 97.929C214.904 97.6336 214.006 98.1753 213.561 99.1461Z" fill="#F8A491"/>
<path d="M110.078 146.359C109.371 144.248 79.6287 58.082 78.3352 54.3182C77.3572 51.5371 75.3175 49.2518 72.6582 47.9573C69.999 46.6628 66.9343 46.4635 64.1284 47.4026L19.8048 62.092C18.4188 62.5417 17.1364 63.2611 16.0321 64.2083C14.9278 65.1555 14.0235 66.3116 13.3719 67.6095C12.7202 68.9075 12.3341 70.3213 12.236 71.769C12.1379 73.2167 12.3297 74.6694 12.8004 76.0427L44.5429 168.083C45.521 170.863 47.5595 173.147 50.2171 174.441C52.8748 175.736 55.9376 175.936 58.7426 174.999L103.066 160.303C104.452 159.853 105.734 159.135 106.839 158.189C107.943 157.242 108.848 156.087 109.5 154.79C110.153 153.492 110.54 152.079 110.639 150.632C110.738 149.185 110.547 147.732 110.078 146.359ZM99.3131 148.681L54.5371 163.525C52.918 164.064 51.1506 163.949 49.6166 163.202C48.0825 162.456 46.905 161.139 46.3382 159.536L16.9846 74.4105C16.716 73.6185 16.6075 72.7813 16.6656 71.9474C16.7237 71.1134 16.9471 70.2991 17.323 69.5516C17.6988 68.804 18.2197 68.1379 18.8555 67.5917C19.4914 67.0455 20.2296 66.6301 21.0276 66.3693L65.8036 51.5252C67.4217 50.9838 69.1889 51.0989 70.7223 51.8456C72.2557 52.5923 73.4317 53.9103 73.9954 55.5141C81.1271 76.1834 102.713 138.782 103.356 140.639C103.625 141.431 103.733 142.269 103.675 143.103C103.617 143.936 103.394 144.751 103.018 145.498C102.642 146.246 102.121 146.912 101.485 147.458C100.849 148.004 100.111 148.42 99.3131 148.681Z" fill="#34548A"/>
<path d="M87.8274 158.663C88.5342 160.64 85.3748 163.468 80.823 164.995C76.2712 166.522 72.0303 166.121 71.3447 164.137C70.6591 162.153 73.7974 159.325 78.3492 157.805C82.901 156.285 87.1206 156.679 87.8274 158.663Z" fill="#194655"/>
<path d="M86.6187 158.818C87.2619 160.682 84.6679 163.222 80.8229 164.496C76.9779 165.769 73.3379 165.298 72.7018 163.433C72.0656 161.569 74.6525 159.036 78.4975 157.756C82.3426 156.475 85.9755 156.996 86.6187 158.818Z" fill="#34548A"/>
<path d="M249.805 60.1925L199.997 48.9855C193.417 47.5082 186.928 51.3845 185.5 57.6458L162.748 157.7C161.335 163.961 165.505 170.243 172.092 171.728L221.894 182.935C228.481 184.412 234.97 180.536 236.39 174.267L259.121 74.2065C260.57 67.9523 256.386 61.6769 249.805 60.1925ZM233.429 165.438C232.983 167.203 231.853 168.72 230.285 169.656C228.718 170.592 226.841 170.872 225.067 170.433L174.715 159.107C172.923 158.744 171.349 157.688 170.34 156.171C169.33 154.654 168.966 152.8 169.329 151.016L190.349 58.5041C190.568 57.6294 190.958 56.8062 191.497 56.0816C192.036 55.3571 192.713 54.7454 193.49 54.2815C194.266 53.8175 195.127 53.5106 196.023 53.378C196.919 53.2455 197.832 53.2901 198.711 53.5091L249.028 64.8357C250.82 65.1986 252.393 66.2545 253.403 67.7715C254.413 69.2885 254.776 71.1425 254.414 72.9261L233.429 165.438Z" fill="#8CB0DD"/>
<path d="M208.613 173.085C208.126 175.238 203.588 176.054 198.471 174.9C193.353 173.747 189.607 171.066 190.095 168.956C190.583 166.845 195.128 165.987 200.245 167.134C205.362 168.28 209.108 170.933 208.613 173.085Z" fill="#476EB5"/>
<path d="M207.39 172.558C206.931 174.584 203.058 175.435 198.739 174.464C194.42 173.493 191.289 171.066 191.728 169.04C192.166 167.014 196.06 166.163 200.379 167.141C204.697 168.119 207.85 170.539 207.39 172.558Z" fill="#8CB0DD"/>
<path d="M217.618 112.766C217.618 112.766 233.987 108.812 237.635 108.144C241.282 107.476 253.948 102.938 254.435 102.741C254.923 102.544 256.754 96.0647 257.46 96.4939C258.167 96.923 256.365 99.7582 257.255 100.124C258.146 100.49 265.779 97.0919 265.829 97.7039C265.928 98.8577 261.242 99.9622 261.39 100.518C261.539 101.074 266.175 98.914 266.741 99.7089C267.306 100.504 262.168 101.32 262.069 101.763C261.97 102.206 267.016 101.63 266.741 102.579C266.592 103.1 262.253 102.994 262.429 103.592C262.606 104.19 265.921 104.781 265.695 105.358C265.468 105.935 262.988 104.5 261.284 104.929C259.581 105.358 258.118 104.802 255.63 106.273C253.142 107.743 244.858 113.948 238.985 115.228C233.111 116.509 220.155 119.372 220.155 119.372L217.618 112.766Z" fill="#F8A491"/>
<path d="M213.639 110.262C214.197 110.001 215.893 109.952 217.915 109.973C218.664 109.973 219.71 109.973 220.502 109.973C223.463 109.889 226.269 110.029 226.269 110.029C226.269 110.029 227.753 117.177 226.516 119.006C226.516 119.006 214.953 120.645 215.208 121.447L213.639 110.262Z" fill="#4D90FF"/>
<path d="M173.549 110.304L174.545 109.051C174.9 108.509 175.457 108.13 176.093 107.996C177.026 107.905 176.998 106.744 176.008 106.906C175.463 106.994 174.926 107.128 174.404 107.307C175.092 106.972 175.758 106.594 176.397 106.174C176.595 105.471 175.513 105.161 174.065 106.23C172.616 107.3 173.549 110.304 173.549 110.304Z" fill="#F8A491"/>
<path d="M39.8991 147.949C39.4549 148.183 39.0296 148.451 38.6269 148.751C38.6242 148.73 38.6242 148.709 38.6269 148.688L39.5599 147.703C40.4999 146.999 40.0051 146.225 39.1216 146.697C38.6257 146.956 38.1528 147.258 37.708 147.597C38.2756 147.079 38.7873 146.504 39.2347 145.881C39.2347 145.121 38.0614 145.177 37.0366 146.683C36.1389 147.984 37.4606 150.249 37.8494 150.784C38.0843 151.26 38.4556 151.657 38.9167 151.924L39.157 150.446C39.2366 150.136 39.3769 149.845 39.5697 149.589C39.7626 149.333 40.0042 149.118 40.2808 148.955C41.1784 148.554 40.7756 147.47 39.8991 147.949Z" fill="#F8A491"/>
<path d="M177.16 105.759C177.16 105.759 179.486 103.902 179.853 104.69C180.221 105.478 180.065 107.194 179.719 107.075C179.372 106.955 179.415 105.731 178.418 106.047C178.143 106.139 176.757 106.575 177.16 105.759Z" fill="#F8A491"/>
<path d="M217.879 42.3232L134.349 24.5947C133.233 24.3582 132.174 23.905 131.234 23.261C130.294 22.6171 129.49 21.795 128.869 20.8418C128.248 19.8885 127.822 18.8228 127.615 17.7055C127.408 16.5883 127.424 15.4414 127.663 14.3304L129.26 6.84501C129.742 4.60176 131.099 2.64064 133.032 1.39268C134.966 0.144718 137.318 -0.287955 139.573 0.189761L223.103 17.9183C225.358 18.3961 227.33 19.7459 228.585 21.6708C229.84 23.5956 230.276 25.938 229.796 28.1826L228.192 35.668C227.71 37.9112 226.353 39.8723 224.42 41.1203C222.486 42.3683 220.133 42.8009 217.879 42.3232Z" fill="#0061FF"/>
<path d="M203.008 36.1462L210.698 46.6075L213.165 38.8688L203.008 36.1462Z" fill="#0061FF"/>
<path d="M154.684 12.649C154.281 14.5274 152.239 15.6811 150.118 15.2309C147.998 14.7806 146.584 12.8952 147.001 11.0098C147.418 9.12439 149.447 7.97766 151.574 8.42791C153.702 8.87816 155.087 10.7706 154.684 12.649Z" fill="white"/>
<path d="M151.44 15.2942L148.867 14.7525C148.311 14.6337 147.737 14.6253 147.177 14.7276C146.618 14.8299 146.085 15.041 145.607 15.3487C145.13 15.6565 144.718 16.0549 144.396 16.5212C144.074 16.9874 143.847 17.5124 143.728 18.066L143.064 21.1756L154.104 23.5253L154.769 20.4158C154.888 19.8619 154.897 19.2901 154.794 18.7329C154.691 18.1757 154.479 17.6442 154.17 17.1685C153.861 16.6929 153.461 16.2826 152.992 15.961C152.524 15.6394 151.996 15.4128 151.44 15.2942Z" fill="white"/>
<path d="M187.755 22.055C186.978 25.6921 181.069 27.5213 174.552 26.1424C168.035 24.7635 163.392 20.6901 164.176 17.053C164.961 13.4158 170.863 11.5867 177.372 12.9726C183.882 14.3585 188.533 18.4037 187.755 22.055Z" fill="white"/>
<path d="M176.998 24.8831L173.23 28.4147L182.157 26.3112L181.825 20.5776L176.998 24.8831Z" fill="white"/>
<path d="M204.393 24.3625L205.743 23.6589C205.945 23.5594 206.105 23.3937 206.198 23.1899C206.291 22.9861 206.31 22.7566 206.252 22.5403C205.935 21.2861 205.357 20.1119 204.556 19.0931C204.416 18.9279 204.224 18.814 204.012 18.7694C203.799 18.7248 203.578 18.752 203.383 18.8469L201.022 19.9936C200.875 20.065 200.749 20.172 200.655 20.3049C200.561 20.4377 200.503 20.592 200.485 20.7534C200.098 23.7268 200.839 26.7368 202.563 29.1956C204.508 31.9406 207.116 34.1543 210.147 35.6328C210.307 35.703 210.482 35.7302 210.656 35.7117C210.829 35.6932 210.995 35.6296 211.136 35.5272L213.313 33.9162C213.498 33.7798 213.628 33.5824 213.68 33.3594C213.731 33.1364 213.702 32.9023 213.596 32.6991C212.901 31.3382 211.81 30.2176 210.465 29.484C210.288 29.3879 210.086 29.3485 209.886 29.3711C209.686 29.3938 209.498 29.4775 209.348 29.6107L208.535 30.3142C208.374 30.4584 208.169 30.545 207.953 30.5603C207.736 30.5756 207.521 30.5187 207.341 30.3986C206.549 29.8639 205.22 28.5835 203.927 25.5655C203.843 25.3429 203.845 25.0975 203.931 24.8757C204.017 24.654 204.181 24.4714 204.393 24.3625Z" fill="white"/>
<path d="M116.451 85.2803L108.793 97.8211C108.017 99.0928 108.423 100.75 109.701 101.523L122.3 109.145C123.578 109.918 125.243 109.514 126.019 108.242L133.677 95.7011C134.453 94.4294 134.047 92.772 132.77 91.9991L120.17 84.3772C118.893 83.6043 117.227 84.0087 116.451 85.2803Z" fill="#0061FF"/>
<path d="M128.928 98.8717C129.037 98.7179 129.114 98.5438 129.154 98.3599C129.194 98.176 129.197 97.9859 129.162 97.8009C129.127 97.6159 129.055 97.4398 128.951 97.2829C128.846 97.1261 128.711 96.9917 128.553 96.8878C125.537 94.2302 122.082 92.1119 118.34 90.6265C118.174 90.5339 117.991 90.4757 117.801 90.4554C117.612 90.4351 117.42 90.4531 117.238 90.5083C117.056 90.5635 116.887 90.6547 116.741 90.7766C116.595 90.8985 116.475 91.0484 116.389 91.2174C114.643 96.3531 115.244 94.4255 114.495 97.4084C114.408 97.745 114.45 98.1015 114.612 98.4093C114.774 98.7172 115.044 98.9545 115.371 99.0757C115.712 99.2111 116.092 99.2139 116.435 99.0836C116.778 98.9533 117.06 98.6993 117.223 98.3722C117.407 97.9923 117.584 97.6124 117.76 97.2395C117.817 97.1325 117.895 97.0381 117.99 96.962C118.084 96.8859 118.193 96.8297 118.31 96.7968C118.427 96.7639 118.55 96.755 118.67 96.7707C118.791 96.7863 118.907 96.8261 119.011 96.8878C120.296 97.5385 121.532 98.2815 122.708 99.1109C122.811 99.1751 122.899 99.2592 122.969 99.3583C123.038 99.4573 123.087 99.5692 123.112 99.6874C123.137 99.8055 123.138 99.9275 123.115 100.046C123.091 100.164 123.045 100.277 122.977 100.377L122.227 101.355C122.008 101.648 121.912 102.015 121.96 102.377C122.007 102.74 122.194 103.069 122.482 103.297C122.746 103.518 123.08 103.64 123.425 103.64C123.771 103.64 124.105 103.518 124.369 103.297C124.92 102.825 127.967 99.8707 128.928 98.8717Z" fill="white"/>
<path d="M119.181 92.6245C119.336 92.7213 119.463 92.8572 119.549 93.0185L119.973 92.315L119.075 91.7733L118.658 92.4768C118.843 92.4786 119.023 92.5296 119.181 92.6245Z" fill="#0061FF"/>
<path d="M117.761 92.9763C117.857 92.8196 117.994 92.691 118.156 92.6034L117.45 92.1883L116.905 93.0748L117.612 93.4969C117.613 93.3131 117.664 93.133 117.761 92.9763Z" fill="#0061FF"/>
<path d="M118.107 94.3832C117.948 94.2888 117.818 94.1524 117.732 93.9892L117.308 94.6927L118.206 95.2345L118.63 94.5309C118.446 94.5262 118.266 94.4754 118.107 94.3832Z" fill="#0061FF"/>
<path d="M119.676 93.518C119.668 93.7016 119.615 93.8805 119.52 94.0386C119.425 94.1947 119.288 94.3213 119.125 94.4044L119.831 94.8265L120.376 93.933L119.676 93.518Z" fill="#0061FF"/>
<path d="M119.181 93.8274C119.09 93.9587 118.952 94.0503 118.796 94.0837C118.639 94.1171 118.475 94.0897 118.338 94.0071C118.201 93.9245 118.101 93.7929 118.058 93.6393C118.015 93.4856 118.032 93.3214 118.107 93.1802C118.198 93.049 118.336 92.9574 118.493 92.924C118.65 92.8906 118.813 92.918 118.95 93.0006C119.087 93.0832 119.188 93.2147 119.23 93.3684C119.273 93.5221 119.256 93.6862 119.181 93.8274Z" fill="#0061FF"/>
<path d="M127.126 98.731C126.988 98.957 126.786 99.1374 126.545 99.2492C126.305 99.361 126.036 99.3993 125.773 99.3592C125.511 99.3191 125.266 99.2024 125.07 99.0239C124.874 98.8454 124.736 98.6131 124.673 98.3563C124.61 98.0996 124.624 97.8299 124.715 97.5815C124.806 97.333 124.968 97.1169 125.183 96.9605C125.397 96.804 125.653 96.7143 125.918 96.7026C126.183 96.6909 126.446 96.7578 126.673 96.8948C126.824 96.9858 126.955 97.1055 127.06 97.247C127.164 97.3885 127.239 97.5491 127.281 97.7196C127.323 97.8902 127.331 98.0672 127.305 98.2408C127.278 98.4143 127.217 98.5809 127.126 98.731Z" fill="#0061FF"/>
<path d="M134.159 51.0749C134.36 50.2424 134.747 49.4658 135.291 48.8031C135.836 48.1404 136.524 47.6088 137.304 47.2478C139.721 46.1362 142.329 47.3815 143.425 49.7312C144.69 52.4538 143.92 56.7171 139.332 62.2397C132.13 62.1623 128.356 59.9955 127.091 57.2729C125.995 54.9231 126.723 52.1372 129.14 51.0186C129.925 50.6429 130.786 50.4525 131.656 50.4623C132.527 50.472 133.383 50.6817 134.159 51.0749Z" fill="#F58D80"/>
<path d="M39.2536 23.6339L23.2575 31.2213C21.3687 32.1172 20.5672 34.3675 21.4673 36.2475L25.7607 45.215C26.6608 47.095 28.9217 47.8928 30.8105 46.9968L46.8065 39.4094C48.6953 38.5135 49.4969 36.2632 48.5967 34.3832L44.3034 25.4157C43.4033 23.5357 41.1424 22.7379 39.2536 23.6339Z" fill="#F9E0B2"/>
<path d="M24.2789 40.3252L20.8509 50.4909L28.4631 44.8839L24.2789 40.3252Z" fill="#F9E0B2"/>
<path d="M29.9263 36.3925L31.9902 35.3724C31.9902 35.3724 33.63 32.2136 33.4038 31.4961C33.1776 30.7785 32.0326 29.5544 32.3436 29.1815C32.5814 28.8763 32.9299 28.6759 33.3144 28.6233C33.6988 28.5707 34.0887 28.6701 34.4004 28.9001C35.1072 29.3574 35.9412 31.89 36.2593 31.9322C37.0347 31.6932 37.7832 31.3749 38.4928 30.9825C38.7687 30.8473 39.0764 30.7896 39.3828 30.8156C39.6892 30.8416 39.9827 30.9504 40.2315 31.1302C40.399 31.249 40.5195 31.4223 40.5724 31.62C40.6253 31.8178 40.6072 32.0277 40.5213 32.2137L40.2527 32.8116L40.8465 33.1141C41.0565 33.2223 41.2151 33.4086 41.2879 33.6326C41.3607 33.8565 41.3417 34.1 41.2352 34.3101L41.009 34.7604L41.3907 34.9151C41.5073 34.9636 41.6124 35.0361 41.6989 35.1278C41.7855 35.2194 41.8516 35.3283 41.893 35.4472C41.9343 35.566 41.95 35.6923 41.939 35.8176C41.9279 35.9429 41.8904 36.0645 41.8289 36.1744L41.6169 36.5543L41.7088 36.6176C41.891 36.7482 42.0175 36.9419 42.0633 37.1607C42.1091 37.3795 42.0709 37.6075 41.9561 37.7996L41.737 38.1654L36.2805 40.9161C35.7781 41.1749 35.2267 41.3259 34.6619 41.3593L32.6051 42.0066C32.4987 42.0397 32.3839 42.0338 32.2814 41.9899C32.179 41.946 32.0957 41.8671 32.0468 41.7674L29.7214 37.0327C29.6911 36.9776 29.6724 36.9169 29.6663 36.8544C29.6603 36.7919 29.667 36.7288 29.6862 36.669C29.7053 36.6091 29.7365 36.5537 29.7778 36.5062C29.8191 36.4587 29.8696 36.42 29.9263 36.3925Z" fill="white"/>
<path d="M162.324 61.3181C174.418 58.5884 185.592 62.3663 187.282 69.7602C188.123 73.4607 186.434 77.3652 183.041 80.6788L190.434 90.4787L178.157 84.323C175.118 86.0674 171.828 87.3391 168.403 88.0938C156.31 90.8235 145.135 87.0456 143.446 79.6516C141.756 72.2577 150.224 64.0407 162.324 61.3181Z" fill="#F9E0B2"/>
<path d="M173.973 74.1503C173.909 75.6887 173.388 77.1737 172.476 78.4176C171.564 79.6615 170.302 80.6084 168.85 81.1388C167.398 81.6692 165.82 81.7592 164.317 81.3974C162.813 81.0356 161.451 80.2383 160.402 79.1062C159.354 77.9741 158.666 76.558 158.426 75.0369C158.185 73.5159 158.404 71.9581 159.053 70.5604C159.702 69.1626 160.752 67.9878 162.072 67.1842C163.391 66.3807 164.921 65.9845 166.466 66.0458C168.541 66.1299 170.498 67.031 171.906 68.5508C173.313 70.0707 174.057 72.0848 173.973 74.1503Z" fill="#F8CC7F"/>
<path d="M161.922 74.8959C161.896 75.4446 161.979 75.993 162.167 76.5095C162.354 77.026 162.643 77.5004 163.016 77.9055C163.388 78.3106 163.838 78.6383 164.338 78.8697C164.839 79.1011 165.38 79.2318 165.932 79.254C166.483 79.2763 167.034 79.1898 167.551 78.9995C168.069 78.8091 168.544 78.5188 168.948 78.1451C169.352 77.7714 169.679 77.3218 169.908 76.8221C170.137 76.3224 170.265 75.7826 170.283 75.2336L161.922 74.8959Z" fill="#F0EFEF"/>
<path d="M10.1568 95.7551L6.1704 96.5501L6.66516 100.293L2.7636 101.243L2.79894 104.88L0 106.069L0.600782 107.476L4.34684 105.886L4.31857 102.446L8.36856 101.454L7.88086 97.7742L11.4997 97.0496L10.1568 95.7551Z" fill="#F58D80"/>
<path d="M276 126.541L274.89 122.643L271.179 123.431L269.914 119.646L266.274 119.963L264.861 117.283L263.496 118L265.391 121.581L268.833 121.279L270.155 125.225L273.802 124.444L274.812 127.976L276 126.541Z" fill="#F8CC7F"/>
<path d="M10.8214 54.1985L8.58794 54.881L7.08952 51.4267L3.70393 52.0247L2.1631 49.6187L0.940327 50.3996L3.0042 53.6076L6.21308 53.0448L7.77512 56.6397L11.1254 55.6126L10.8214 54.1985Z" fill="#4D90FF"/>
<path d="M93.5171 68.1562C92.4521 67.4739 91.2422 67.0476 89.9831 66.911C89.0784 66.8266 85.1273 66.8336 84.6184 67.7763C84.1095 68.719 88.2514 71.3994 88.4705 72.518C88.6896 73.6366 86.0744 90.9219 85.3111 94.327C84.9436 96.0224 83.5087 99.2093 82.1446 102.009C84.1025 102.319 86.4844 103.909 87.9828 105.041C89.9053 100.863 91.8702 96.1561 92.1176 93.9471C92.6406 89.5149 94.2946 68.7964 93.5171 68.1562Z" fill="#F8A491"/>
<path d="M104.974 38.3273C103.624 38.2148 96.5847 43.5615 96.5847 43.5615L96.2667 43.9765C96.2667 43.9765 105.78 45.5735 106.226 45.278C107.427 44.476 106.084 38.4188 104.974 38.3273ZM96.6059 43.7303C98.903 42.07 103.632 40.0298 104.649 39.6007C105.261 41.0339 105.555 42.5817 105.512 44.1383C104.388 44.0469 99.3907 44.1594 96.6059 43.7303Z" fill="#476EB5"/>
<path d="M94.6904 33.881C93.4676 30.6307 92.2802 30.7855 91.432 30.891C90.5838 30.9966 86.7953 33.7051 87.1488 35.7312C87.5022 37.7573 95.1003 43.7935 95.1003 43.7935L95.6021 43.2166C95.6021 43.2166 95.9061 37.1382 94.6904 33.881ZM88.3291 35.5342C88.1524 34.5071 90.7817 32.3192 91.6511 32.0167C91.8172 31.9887 91.9868 31.9887 92.1529 32.0167C92.3155 32.0659 92.8597 32.3614 93.6089 34.2679C94.5099 37.1303 95.0442 40.0944 95.1992 43.09C92.1529 40.6066 88.5341 36.4277 88.3079 35.5483L88.3291 35.5342Z" fill="#476EB5"/>
<path d="M94.9843 42.9278L94.6368 44.1386C94.5199 44.5459 94.7569 44.9703 95.166 45.0866L95.5806 45.2045C95.9897 45.3208 96.4161 45.0849 96.533 44.6777L96.8804 43.4668C96.9973 43.0596 96.7603 42.6352 96.3512 42.5189L95.9366 42.401C95.5275 42.2847 95.1011 42.5206 94.9843 42.9278Z" fill="#476EB5"/>
<path d="M102.875 71.5613L76.7236 64.1181C76.0409 63.9264 75.4575 63.4826 75.0923 62.8773C74.7272 62.2719 74.6079 61.5507 74.7587 60.8608L79.3459 39.5092L113.456 49.2036L105.78 70.6256C105.455 71.5191 104.176 71.9341 102.875 71.5613Z" fill="#F37458"/>
<path d="M113.562 54.1914L76.5188 43.7301L76.8086 41.2538C76.8483 40.9039 76.9641 40.5669 77.1481 40.2663C77.3321 39.9656 77.5798 39.7085 77.8738 39.5129C78.1679 39.3173 78.5013 39.188 78.8508 39.1338C79.2003 39.0797 79.5575 39.1021 79.8973 39.1995L113.379 48.8165C114.573 49.1542 115.294 50.1532 114.941 50.9693L113.562 54.1914Z" fill="#F9E0B2"/>
<path d="M95.7312 43.7496L94.289 48.7757L94.9958 48.9767L96.438 43.9505L95.7312 43.7496Z" fill="#476EB5"/>
<path d="M94.9972 48.9366L89.5829 67.8176L90.4665 68.0686L95.8808 49.1876L94.9972 48.9366Z" fill="#476EB5"/>
<path d="M86.7673 68.1281L86.8592 67.0166C86.022 66.7775 85.1986 66.4933 84.3924 66.1653L84.244 65.3211C83.7775 64.1603 83.2545 64.9834 83.099 65.2507C83.0663 65.8073 83.1091 66.3658 83.2262 66.911C83.2262 66.911 84.9932 68.7683 85.7495 69.4718C86.1241 69.8165 87.3115 70.7804 87.3115 70.7804L88.2586 69.4718L86.7673 68.1281Z" fill="#F8A491"/>
</svg>
