<svg width="27" height="27" viewBox="0 0 27 27" fill="none" xmlns="http://www.w3.org/2000/svg">
<path d="M14.9265 18.63L9.6255 13.5L14.9265 8.37C15.4845 7.83 15.4845 7.02 14.9265 6.48L8.649 0.405C8.091 -0.135 7.254 -0.135 6.696 0.405C6.417 0.675 6.2775 0.945 6.2775 1.35V10.26L2.3715 6.48C1.8135 5.94 0.9765 5.94 0.4185 6.48C-0.1395 7.02 -0.1395 7.83 0.4185 8.37L5.7195 13.5L0.4185 18.63C-0.1395 19.17 -0.1395 19.98 0.4185 20.52C0.9765 21.06 1.8135 21.06 2.3715 20.52L6.2775 16.74V25.65C6.2775 26.46 6.8355 27 7.6725 27C8.091 27 8.37 26.865 8.649 26.595L14.9265 20.52C15.4845 19.98 15.4845 19.17 14.9265 18.63ZM9.0675 4.59L11.997 7.425L9.0675 10.26V4.59ZM9.0675 22.41V16.74L11.997 19.575L9.0675 22.41Z" fill="#4D90FF"/>
<path d="M21.2962 18.765C20.6685 18.765 20.25 18.36 20.25 17.7525C20.25 17.4488 20.3546 17.2463 20.5639 17.0438L24.2257 13.5L20.5639 9.95628C20.1454 9.55128 20.1454 8.94378 20.5639 8.53878C20.9824 8.13378 21.6101 8.13378 22.0286 8.53878L26.4229 12.7913C26.8414 13.1963 26.8414 13.8038 26.4229 14.2088L22.0286 18.4613C21.8194 18.6638 21.5055 18.765 21.2962 18.765Z" fill="#4D90FF"/>
</svg>
