<svg width="20" height="20" viewBox="0 0 20 20" fill="none" xmlns="http://www.w3.org/2000/svg">
<path d="M10 3.75C7.64625 3.75 5.56625 3.99375 4.29688 4.18C3.24688 4.33375 2.4 5.12437 2.20687 6.17188C2.04375 7.06312 1.875 8.36688 1.875 10C1.875 11.6331 2.04375 12.9375 2.20687 13.8281C2.4 14.8756 3.24688 15.6687 4.29688 15.8206C5.57188 16.0056 7.65875 16.25 10 16.25C12.3413 16.25 14.4288 16.0063 15.7031 15.82C16.7531 15.6687 17.6 14.8756 17.7931 13.8281C17.9562 12.9344 18.125 11.6281 18.125 10C18.125 8.37187 17.9587 7.06562 17.7931 6.17188C17.6 5.12437 16.7531 4.33375 15.7031 4.17937C14.4338 3.99437 12.3531 3.75 10 3.75ZM10 5C12.2706 5 14.2994 5.23188 15.5275 5.41C15.7827 5.44648 16.02 5.56232 16.2058 5.74111C16.3915 5.91991 16.5163 6.1526 16.5625 6.40625C16.7137 7.23125 16.875 8.45437 16.875 10C16.875 11.5431 16.7137 12.7688 16.5625 13.5938C16.5171 13.8478 16.3926 14.0809 16.2067 14.2598C16.0208 14.4388 15.783 14.5543 15.5275 14.59C14.2937 14.7681 12.2556 15 10 15C7.74375 15 5.70312 14.7681 4.4725 14.59C4.21713 14.5539 3.97965 14.4382 3.79384 14.2593C3.60802 14.0804 3.48333 13.8476 3.4375 13.5938C3.28625 12.7688 3.125 11.5481 3.125 10C3.125 8.45 3.28625 7.23125 3.4375 6.40625C3.48333 6.15245 3.60802 5.91955 3.79384 5.74069C3.97965 5.56184 4.21713 5.44612 4.4725 5.41C5.69813 5.23188 7.72937 5 10 5ZM8.125 6.42563V13.575L9.0625 13.0475L13.4375 10.5475L14.375 10L13.4375 9.45312L9.0625 6.95312L8.125 6.42563ZM9.375 8.57438L11.8556 10L9.375 11.4256V8.57438Z" fill="#0061FF"/>
</svg>
