<svg width="10" height="10" viewBox="0 0 10 10" fill="none" xmlns="http://www.w3.org/2000/svg">
<g clip-path="url(#clip0_1712_1523)">
<path d="M5.00004 0.833328C4.17595 0.833328 3.37037 1.0777 2.68517 1.53554C1.99996 1.99338 1.46591 2.64412 1.15054 3.40548C0.835179 4.16684 0.752665 5.00462 0.913437 5.81287C1.07421 6.62113 1.47105 7.36355 2.05376 7.94627C2.63648 8.52899 3.37891 8.92583 4.18717 9.0866C4.99542 9.24737 5.8332 9.16486 6.59456 8.84949C7.35592 8.53413 8.00666 8.00008 8.4645 7.31487C8.92234 6.62967 9.16671 5.82408 9.16671 5C9.16671 4.45282 9.05894 3.911 8.84954 3.40548C8.64015 2.89996 8.33323 2.44063 7.94632 2.05372C7.55941 1.66681 7.10008 1.35989 6.59456 1.1505C6.08903 0.941102 5.54722 0.833328 5.00004 0.833328ZM5.00004 8.33333C4.34077 8.33333 3.69631 8.13783 3.14814 7.77156C2.59998 7.40529 2.17274 6.88469 1.92044 6.27561C1.66815 5.66652 1.60214 4.9963 1.73076 4.34969C1.85938 3.70309 2.17684 3.10915 2.64302 2.64297C3.10919 2.1768 3.70314 1.85933 4.34974 1.73071C4.99635 1.60209 5.66657 1.6681 6.27565 1.9204C6.88474 2.17269 7.40534 2.59993 7.77161 3.14809C8.13788 3.69626 8.33338 4.34072 8.33338 5C8.33338 5.88405 7.98219 6.7319 7.35707 7.35702C6.73194 7.98214 5.8841 8.33333 5.00004 8.33333ZM6.66671 4.58333H5.41671V3.33333C5.41671 3.22282 5.37281 3.11684 5.29467 3.0387C5.21653 2.96056 5.11055 2.91666 5.00004 2.91666C4.88954 2.91666 4.78356 2.96056 4.70541 3.0387C4.62727 3.11684 4.58338 3.22282 4.58338 3.33333V4.58333H3.33338C3.22287 4.58333 3.11689 4.62723 3.03875 4.70537C2.96061 4.78351 2.91671 4.88949 2.91671 5C2.91671 5.1105 2.96061 5.21648 3.03875 5.29462C3.11689 5.37276 3.22287 5.41666 3.33338 5.41666H4.58338V6.66666C4.58338 6.77717 4.62727 6.88315 4.70541 6.96129C4.78356 7.03943 4.88954 7.08333 5.00004 7.08333C5.11055 7.08333 5.21653 7.03943 5.29467 6.96129C5.37281 6.88315 5.41671 6.77717 5.41671 6.66666V5.41666H6.66671C6.77722 5.41666 6.8832 5.37276 6.96134 5.29462C7.03948 5.21648 7.08338 5.1105 7.08338 5C7.08338 4.88949 7.03948 4.78351 6.96134 4.70537C6.8832 4.62723 6.77722 4.58333 6.66671 4.58333Z" fill="white"/>
</g>
<defs>
<clipPath id="clip0_1712_1523">
<rect width="10" height="10" fill="white"/>
</clipPath>
</defs>
</svg>
