<svg width="32" height="32" viewBox="0 0 32 32" fill="none" xmlns="http://www.w3.org/2000/svg">
<path d="M28 14H26.6667V12.6667C26.6667 12.3131 26.5262 11.9739 26.2761 11.7239C26.0261 11.4738 25.6869 11.3334 25.3333 11.3334C24.9797 11.3334 24.6406 11.4738 24.3905 11.7239C24.1405 11.9739 24 12.3131 24 12.6667V14H22.6667C22.313 14 21.9739 14.1405 21.7238 14.3905C21.4738 14.6406 21.3333 14.9797 21.3333 15.3334C21.3333 15.687 21.4738 16.0261 21.7238 16.2762C21.9739 16.5262 22.313 16.6667 22.6667 16.6667H24V18C24 18.3536 24.1405 18.6928 24.3905 18.9428C24.6406 19.1929 24.9797 19.3334 25.3333 19.3334C25.6869 19.3334 26.0261 19.1929 26.2761 18.9428C26.5262 18.6928 26.6667 18.3536 26.6667 18V16.6667H28C28.3536 16.6667 28.6928 16.5262 28.9428 16.2762C29.1929 16.0261 29.3333 15.687 29.3333 15.3334C29.3333 14.9797 29.1929 14.6406 28.9428 14.3905C28.6928 14.1405 28.3536 14 28 14ZM17.7333 16.2934C18.4448 15.6775 19.0154 14.9159 19.4065 14.0601C19.7976 13.2042 20 12.2743 20 11.3334C20 9.56524 19.2976 7.86955 18.0474 6.61931C16.7971 5.36907 15.1014 4.66669 13.3333 4.66669C11.5652 4.66669 9.86952 5.36907 8.61928 6.61931C7.36904 7.86955 6.66666 9.56524 6.66666 11.3334C6.66665 12.2743 6.86906 13.2042 7.26016 14.0601C7.65126 14.9159 8.22189 15.6775 8.93332 16.2934C7.06684 17.1385 5.48328 18.5034 4.37196 20.2247C3.26065 21.9461 2.66862 23.9511 2.66666 26C2.66666 26.3536 2.80713 26.6928 3.05718 26.9428C3.30723 27.1929 3.64637 27.3334 3.99999 27.3334C4.35361 27.3334 4.69275 27.1929 4.9428 26.9428C5.19285 26.6928 5.33332 26.3536 5.33332 26C5.33332 23.8783 6.17618 21.8435 7.67647 20.3432C9.17676 18.8429 11.2116 18 13.3333 18C15.4551 18 17.4899 18.8429 18.9902 20.3432C20.4905 21.8435 21.3333 23.8783 21.3333 26C21.3333 26.3536 21.4738 26.6928 21.7238 26.9428C21.9739 27.1929 22.313 27.3334 22.6667 27.3334C23.0203 27.3334 23.3594 27.1929 23.6095 26.9428C23.8595 26.6928 24 26.3536 24 26C23.998 23.9511 23.406 21.9461 22.2947 20.2247C21.1834 18.5034 19.5998 17.1385 17.7333 16.2934ZM13.3333 15.3334C12.5422 15.3334 11.7688 15.0988 11.111 14.6592C10.4532 14.2197 9.94056 13.595 9.63781 12.8641C9.33505 12.1332 9.25584 11.3289 9.41018 10.553C9.56452 9.77707 9.94549 9.06434 10.5049 8.50493C11.0643 7.94552 11.777 7.56455 12.553 7.41021C13.3289 7.25587 14.1332 7.33509 14.8641 7.63784C15.595 7.94059 16.2197 8.45328 16.6592 9.11107C17.0987 9.76887 17.3333 10.5422 17.3333 11.3334C17.3333 12.3942 16.9119 13.4116 16.1618 14.1618C15.4116 14.9119 14.3942 15.3334 13.3333 15.3334Z" fill="#4D90FF"/>
</svg>
