<svg width="32" height="32" viewBox="0 0 32 32" fill="none" xmlns="http://www.w3.org/2000/svg">
<path d="M15.9996 6.66669C13.6592 6.66675 11.3599 7.28287 9.33307 8.45314C7.3062 9.62341 5.62307 11.3066 4.45287 13.3335C3.28266 15.3604 2.66661 17.6596 2.66663 20.0001C2.66664 22.3406 3.28272 24.6398 4.45295 26.6667C4.62976 26.9743 4.92155 27.1992 5.26411 27.2917C5.60668 27.3842 5.97197 27.3368 6.27962 27.16C6.58727 26.9832 6.81208 26.6914 6.9046 26.3489C6.99712 26.0063 6.94976 25.641 6.77295 25.3334C5.82821 23.7148 5.3312 21.8741 5.33295 20C5.33359 18.3643 5.71043 16.7506 6.43432 15.2837C7.15821 13.8168 8.20977 12.5361 9.50768 11.5406C10.8056 10.545 12.3151 9.86131 13.9194 9.54231C15.5238 9.22331 17.18 9.27756 18.76 9.70088C20.3401 10.1242 21.8016 10.9052 23.0316 11.9836C24.2615 13.062 25.227 14.4088 25.8534 15.9199C26.4797 17.4309 26.7501 19.0658 26.6437 20.6981C26.5373 22.3304 26.0569 23.9164 25.2396 25.3334C25.1515 25.4855 25.0943 25.6536 25.0714 25.828C25.0485 26.0024 25.0603 26.1796 25.1061 26.3494C25.152 26.5191 25.231 26.6782 25.3386 26.8173C25.4461 26.9564 25.5802 27.0729 25.733 27.16C26.0391 27.3339 26.4016 27.3795 26.7413 27.2871C27.081 27.1947 27.3704 26.9717 27.5463 26.6667C28.7165 24.6398 29.3326 22.3406 29.3326 20.0001C29.3326 17.6596 28.7166 15.3604 27.5464 13.3335C26.3762 11.3066 24.693 9.62341 22.6662 8.45314C20.6393 7.28287 18.3401 6.66675 15.9996 6.66669ZM19.7863 14.3467L17.7196 16.4C17.1847 16.1363 16.5961 15.9994 15.9996 16C15.2085 16 14.4351 16.2346 13.7773 16.6741C13.1195 17.1137 12.6069 17.7384 12.3041 18.4693C12.0014 19.2002 11.9221 20.0045 12.0765 20.7804C12.2308 21.5563 12.6118 22.269 13.1712 22.8284C13.7306 23.3879 14.4433 23.7688 15.2193 23.9232C15.9952 24.0775 16.7994 23.9983 17.5304 23.6955C18.2613 23.3928 18.886 22.8801 19.3255 22.2223C19.765 21.5645 19.9996 20.7911 19.9996 20C19.9987 19.408 19.8618 18.8241 19.5996 18.2934L21.6663 16.24C21.7913 16.1161 21.8904 15.9686 21.9581 15.8061C22.0258 15.6436 22.0607 15.4694 22.0607 15.2934C22.0607 15.1173 22.0258 14.9431 21.9581 14.7806C21.8904 14.6181 21.7913 14.4706 21.6663 14.3467C21.4165 14.0984 21.0785 13.959 20.7263 13.959C20.374 13.959 20.0361 14.0984 19.7863 14.3467ZM15.9996 21.3334C15.646 21.3334 15.3069 21.1929 15.0568 20.9428C14.8068 20.6928 14.6663 20.3536 14.6663 20C14.6663 19.6464 14.8068 19.3073 15.0568 19.0572C15.3069 18.8072 15.646 18.6667 15.9996 18.6667C16.3475 18.6646 16.6825 18.7986 16.933 19.04C17.0605 19.1651 17.1617 19.3145 17.2304 19.4794C17.2991 19.6443 17.334 19.8214 17.333 20C17.333 20.3536 17.1925 20.6928 16.9424 20.9428C16.6924 21.1929 16.3532 21.3334 15.9996 21.3334Z" fill="#75839D"/>
</svg>
