<svg width="16" height="16" viewBox="0 0 16 16" fill="none" xmlns="http://www.w3.org/2000/svg">
<path d="M12.6667 7.33332H8.66667V3.33332C8.66667 2.93332 8.4 2.66666 8 2.66666C7.6 2.66666 7.33334 2.93332 7.33334 3.33332V7.33332H3.33334C2.93334 7.33332 2.66667 7.59999 2.66667 7.99999C2.66667 8.39999 2.93334 8.66666 3.33334 8.66666H7.33334V12.6667C7.33334 13.0667 7.6 13.3333 8 13.3333C8.4 13.3333 8.66667 13.0667 8.66667 12.6667V8.66666H12.6667C13.0667 8.66666 13.3333 8.39999 13.3333 7.99999C13.3333 7.59999 13.0667 7.33332 12.6667 7.33332Z" fill="#0061FF"/>
</svg>
