<svg width="24" height="24" viewBox="0 0 24 24" fill="none" xmlns="http://www.w3.org/2000/svg">
<path d="M11.25 18H12.75V19.5H11.25V18ZM4.5 11.25H6V12.75H4.5V11.25ZM18 11.25H19.5V12.75H18V11.25Z" fill="black"/>
<path d="M19.4246 4.57538C17.6429 2.78355 15.2709 1.70007 12.75 1.52658V1.5H11.25V6H12.75V3.0315C17.3629 3.41391 21 7.28995 21 12C21 16.9626 16.9626 21 12 21C7.03737 21 2.99998 16.9626 2.99998 12C2.99895 10.816 3.23203 9.64346 3.68581 8.54986C4.13959 7.45626 4.80511 6.46317 5.6441 5.62772L11.064 12.4658L12.2395 11.5342L5.8406 3.46069L5.2497 3.95709C3.62915 5.31721 2.45728 7.13515 1.88763 9.17269C1.31799 11.2102 1.37716 13.3723 2.05738 15.3757C2.73759 17.379 4.00713 19.1302 5.69964 20.3996C7.39214 21.6691 9.42866 22.3976 11.5423 22.4898C13.656 22.582 15.7482 22.0335 17.5448 20.9163C19.3414 19.799 20.7586 18.1651 21.6107 16.2286C22.4627 14.292 22.7099 12.1433 22.3199 10.0639C21.9298 7.98449 20.9207 6.07142 19.4247 4.57538H19.4246Z" fill="black"/>
</svg>
