<svg width="32" height="32" viewBox="0 0 32 32" fill="none" xmlns="http://www.w3.org/2000/svg">
<path d="M3.99995 10.8C4.35357 10.8 4.69271 10.6595 4.94276 10.4095C5.19281 10.1594 5.33329 9.82031 5.33329 9.46668V9.21335C5.33329 8.85973 5.19281 8.52059 4.94276 8.27054C4.69271 8.02049 4.35357 7.88002 3.99995 7.88002C3.64633 7.88002 3.30719 8.02049 3.05714 8.27054C2.80709 8.52059 2.66662 8.85973 2.66662 9.21335V9.46668C2.66662 9.82031 2.80709 10.1594 3.05714 10.4095C3.30719 10.6595 3.64633 10.8 3.99995 10.8ZM3.99995 5.46668C4.1941 5.46355 4.38522 5.41804 4.55995 5.33335C4.91357 5.27677 5.23024 5.08203 5.44028 4.79198C5.65032 4.50192 5.73653 4.14031 5.67995 3.78668C5.62337 3.43306 5.42863 3.1164 5.13858 2.90636C4.84852 2.69632 4.48691 2.6101 4.13329 2.66668H3.99995C3.63335 2.69703 3.2919 2.86526 3.04446 3.13745C2.79701 3.40963 2.66199 3.76553 2.66662 4.13335C2.68374 4.47529 2.83173 4.79754 3.07995 5.03335C3.32817 5.26916 3.65758 5.40045 3.99995 5.40002V5.46668ZM27.1866 5.21335C27.3944 5.37653 27.646 5.47431 27.9094 5.49428C28.1728 5.51425 28.4362 5.45551 28.6662 5.32551C28.8962 5.19551 29.0824 5.00012 29.2012 4.76413C29.3199 4.52814 29.3659 4.26218 29.3333 4.00002C29.3333 3.6464 29.1928 3.30726 28.9428 3.05721C28.6927 2.80716 28.3536 2.66668 28 2.66668H27.8666C27.5745 2.66677 27.2905 2.76279 27.0583 2.93997C26.826 3.11716 26.6584 3.36572 26.5811 3.64744C26.5039 3.92916 26.5213 4.22845 26.6307 4.49931C26.7401 4.77017 26.9354 4.99762 27.1866 5.14668V5.21335ZM15.8533 5.33335H16.1466C16.5002 5.33335 16.8394 5.19287 17.0894 4.94283C17.3395 4.69278 17.48 4.35364 17.48 4.00002C17.48 3.6464 17.3395 3.30726 17.0894 3.05721C16.8394 2.80716 16.5002 2.66668 16.1466 2.66668H15.8533C15.4997 2.66668 15.1605 2.80716 14.9105 3.05721C14.6604 3.30726 14.52 3.6464 14.52 4.00002C14.52 4.35364 14.6604 4.69278 14.9105 4.94283C15.1605 5.19287 15.4997 5.33335 15.8533 5.33335ZM9.85328 5.33335H10.1333C10.4869 5.33335 10.826 5.19287 11.0761 4.94283C11.3261 4.69278 11.4666 4.35364 11.4666 4.00002C11.4666 3.6464 11.3261 3.30726 11.0761 3.05721C10.826 2.80716 10.4869 2.66668 10.1333 2.66668H9.85328C9.49966 2.66668 9.16052 2.80716 8.91048 3.05721C8.66043 3.30726 8.51995 3.6464 8.51995 4.00002C8.51995 4.35364 8.66043 4.69278 8.91048 4.94283C9.16052 5.19287 9.49966 5.33335 9.85328 5.33335ZM28 26.6667C27.8058 26.6698 27.6147 26.7153 27.44 26.8C27.1762 26.9237 26.9602 27.1303 26.8249 27.3883C26.6897 27.6463 26.6426 27.9415 26.691 28.2287C26.7394 28.516 26.8805 28.7795 27.0928 28.979C27.3051 29.1785 27.5769 29.3029 27.8666 29.3333H28C28.3665 29.303 28.708 29.1348 28.9554 28.8626C29.2029 28.5904 29.3379 28.2345 29.3333 27.8667C29.3001 27.5367 29.1451 27.2308 28.8986 27.0089C28.652 26.787 28.3316 26.665 28 26.6667ZM18.6666 14.6667C18.6666 14.3131 18.5261 13.9739 18.2761 13.7239C18.026 13.4738 17.6869 13.3333 17.3333 13.3333H4.35995C4.24042 13.3183 4.11948 13.3183 3.99995 13.3333C3.64633 13.3333 3.30719 13.4738 3.05714 13.7239C2.80709 13.9739 2.66662 14.3131 2.66662 14.6667V28C2.66662 28.3536 2.80709 28.6928 3.05714 28.9428C3.30719 29.1929 3.64633 29.3333 3.99995 29.3333H17.4666C17.6896 29.3317 17.9087 29.2741 18.1037 29.1659C18.2987 29.0576 18.4634 28.9022 18.5828 28.7138C18.7022 28.5255 18.7724 28.3102 18.7871 28.0876C18.8017 27.8651 18.7603 27.6424 18.6666 27.44V14.6667ZM16 26.6667H7.35995L12.5733 21.4667C12.6142 21.4252 12.663 21.3922 12.7168 21.3697C12.7706 21.3472 12.8283 21.3356 12.8866 21.3356C12.9449 21.3356 13.0027 21.3472 13.0564 21.3697C13.1102 21.3922 13.159 21.4252 13.2 21.4667L16 24.2534V26.6667ZM16 20.4933L15.0933 19.5733C14.5064 18.9912 13.7133 18.6645 12.8866 18.6645C12.06 18.6645 11.2668 18.9912 10.68 19.5733L5.34662 24.9067V16H16.0133L16 20.4933ZM28 20.4933C27.6463 20.4933 27.3072 20.6338 27.0571 20.8839C26.8071 21.1339 26.6666 21.4731 26.6666 21.8267V22.1067C26.6666 22.4603 26.8071 22.7994 27.0571 23.0495C27.3072 23.2995 27.6463 23.44 28 23.44C28.3536 23.44 28.6927 23.2995 28.9428 23.0495C29.1928 22.7994 29.3333 22.4603 29.3333 22.1067V21.8667C29.3333 21.5131 29.1928 21.1739 28.9428 20.9239C28.6927 20.6738 28.3536 20.5333 28 20.5333V20.4933ZM28 8.49335C27.6463 8.49335 27.3072 8.63383 27.0571 8.88387C26.8071 9.13392 26.6666 9.47306 26.6666 9.82668V10.1333C26.6666 10.487 26.8071 10.8261 27.0571 11.0762C27.3072 11.3262 27.6463 11.4667 28 11.4667C28.3536 11.4667 28.6927 11.3262 28.9428 11.0762C29.1928 10.8261 29.3333 10.487 29.3333 10.1333V9.85335C29.3333 9.49973 29.1928 9.16059 28.9428 8.91054C28.6927 8.66049 28.3536 8.52002 28 8.52002V8.49335ZM28 14.4933C27.6463 14.4933 27.3072 14.6338 27.0571 14.8839C26.8071 15.1339 26.6666 15.4731 26.6666 15.8267V16.12C26.6666 16.4736 26.8071 16.8128 27.0571 17.0628C27.3072 17.3129 27.6463 17.4533 28 17.4533C28.3536 17.4533 28.6927 17.3129 28.9428 17.0628C29.1928 16.8128 29.3333 16.4736 29.3333 16.12V15.8267C29.3263 15.4777 29.1828 15.1454 28.9335 14.9011C28.6842 14.6568 28.349 14.5199 28 14.52V14.4933ZM22.8 26.6667H22.5333C22.1797 26.6667 21.8405 26.8072 21.5905 27.0572C21.3404 27.3073 21.2 27.6464 21.2 28C21.2 28.3536 21.3404 28.6928 21.5905 28.9428C21.8405 29.1929 22.1797 29.3333 22.5333 29.3333H22.8C23.1536 29.3333 23.4927 29.1929 23.7428 28.9428C23.9928 28.6928 24.1333 28.3536 24.1333 28C24.1333 27.6464 23.9928 27.3073 23.7428 27.0572C23.4927 26.8072 23.1536 26.6667 22.8 26.6667ZM22.1466 5.33335C22.5002 5.33335 22.8394 5.19287 23.0894 4.94283C23.3395 4.69278 23.48 4.35364 23.48 4.00002C23.48 3.6464 23.3395 3.30726 23.0894 3.05721C22.8394 2.80716 22.5002 2.66668 22.1466 2.66668H21.8666C21.513 2.66668 21.1739 2.80716 20.9238 3.05721C20.6738 3.30726 20.5333 3.6464 20.5333 4.00002C20.5333 4.35364 20.6738 4.69278 20.9238 4.94283C21.1739 5.19287 21.513 5.33335 21.8666 5.33335H22.1466Z" fill="#75839D"/>
</svg>
