<svg width="20" height="20" viewBox="0 0 20 20" fill="none" xmlns="http://www.w3.org/2000/svg">
<path d="M19.1595 3.29184C19.1596 3.14465 19.1207 3.00006 19.0467 2.8728C18.9728 2.74554 18.8664 2.64015 18.7385 2.56737C18.6105 2.49459 18.4656 2.45702 18.3184 2.45848C18.1712 2.45994 18.027 2.50039 17.9006 2.57569C17.4128 2.86601 16.8877 3.08835 16.3397 3.23653C15.5572 2.56505 14.5592 2.19761 13.5281 2.20137C12.3969 2.20267 11.3105 2.64353 10.4982 3.43085C9.68602 4.21818 9.21155 5.29034 9.17504 6.42093C6.94502 6.06532 4.9239 4.90137 3.49708 3.15105C3.41111 3.04675 3.30132 2.96465 3.17696 2.91167C3.05261 2.8587 2.91734 2.83641 2.78256 2.84668C2.64786 2.85777 2.51789 2.9015 2.40389 2.9741C2.28989 3.0467 2.19529 3.14598 2.12826 3.26334C1.78454 3.86319 1.58712 4.53564 1.55205 5.2261C1.51699 5.91656 1.64525 6.60555 1.92644 7.23713L1.92481 7.23876C1.79844 7.3166 1.69414 7.42556 1.6219 7.55522C1.54966 7.68488 1.5119 7.8309 1.51221 7.97933C1.51068 8.10177 1.51803 8.22416 1.53419 8.34553C1.6193 9.39409 2.08401 10.3756 2.84115 11.106C2.78979 11.2038 2.75844 11.3109 2.74894 11.421C2.73944 11.5311 2.75197 11.642 2.78581 11.7472C3.11591 12.7757 3.8179 13.6439 4.75441 14.1821C3.80294 14.55 2.77559 14.6783 1.76286 14.5557C1.57542 14.5321 1.38556 14.573 1.2244 14.6716C1.06325 14.7702 0.940386 14.9206 0.875959 15.0982C0.811533 15.2758 0.809372 15.47 0.869831 15.6489C0.93029 15.8279 1.04978 15.981 1.2087 16.0832C2.95044 17.205 4.97843 17.8014 7.05017 17.8011C9.39955 17.8275 11.6918 17.0768 13.5704 15.6657C15.4489 14.2545 16.8085 12.2621 17.4375 9.99834C17.7317 9.01221 17.8819 7.98874 17.8835 6.95964C17.8835 6.90512 17.8835 6.84897 17.8827 6.79282C18.3178 6.32359 18.6548 5.77224 18.8741 5.17107C19.0933 4.56989 19.1904 3.931 19.1595 3.29184ZM16.404 5.96843C16.2663 6.13122 16.1967 6.34077 16.2095 6.55356C16.2176 6.69106 16.2168 6.82939 16.2168 6.95964C16.2151 7.82926 16.0876 8.69406 15.8384 9.52719C15.3246 11.4534 14.1794 13.1514 12.586 14.3494C10.9926 15.5473 9.04324 16.1759 7.05017 16.1344C6.33424 16.1347 5.62077 16.0505 4.92452 15.8838C5.81236 15.5977 6.64251 15.1566 7.3765 14.5809C7.51169 14.4745 7.61063 14.3288 7.65974 14.1639C7.70886 13.999 7.70574 13.8229 7.65082 13.6599C7.59589 13.4968 7.49186 13.3547 7.35299 13.2531C7.21412 13.1515 7.04721 13.0954 6.87517 13.0925C6.18253 13.0817 5.52111 12.8025 5.03028 12.3137C5.1548 12.2901 5.2785 12.2608 5.40138 12.2258C5.58139 12.1745 5.73892 12.0642 5.8486 11.9125C5.95828 11.7609 6.01373 11.5767 6.00602 11.3897C5.99832 11.2027 5.9279 11.0238 5.80612 10.8817C5.68433 10.7395 5.51826 10.6425 5.33465 10.6063C4.93259 10.5269 4.55427 10.3558 4.22908 10.1064C3.90388 9.85705 3.64058 9.53601 3.45965 9.1683C3.61025 9.18886 3.76182 9.20162 3.91375 9.20655C4.09423 9.20928 4.27091 9.15453 4.41823 9.05022C4.56554 8.94591 4.67587 8.79745 4.73325 8.62631C4.78823 8.45361 4.7854 8.2677 4.72519 8.09675C4.66498 7.92581 4.55066 7.77916 4.39959 7.67904C4.03305 7.43485 3.73279 7.10356 3.52572 6.71484C3.31865 6.32612 3.21122 5.89211 3.21306 5.45168C3.21306 5.39634 3.21469 5.341 3.21795 5.28648C5.08566 7.02835 7.50821 8.05518 10.0588 8.18605C10.1875 8.19112 10.3157 8.16687 10.4337 8.11513C10.5517 8.0634 10.6564 7.98552 10.7399 7.88738C10.8226 7.7883 10.8811 7.67139 10.9109 7.54585C10.9407 7.42031 10.9409 7.28957 10.9116 7.16392C10.8639 6.96505 10.8396 6.76131 10.8392 6.55682C10.8399 5.84393 11.1235 5.16046 11.6276 4.65637C12.1316 4.15229 12.8151 3.86876 13.528 3.86801C13.8948 3.86703 14.2578 3.94209 14.5941 4.08847C14.9304 4.23484 15.2327 4.44934 15.4819 4.71843C15.5781 4.82184 15.699 4.89893 15.8333 4.94238C15.9677 4.98583 16.1109 4.99419 16.2493 4.96668C16.5917 4.90006 16.9291 4.81034 17.2593 4.69813C17.034 5.15894 16.7462 5.58641 16.404 5.96843Z" fill="#0061FF"/>
</svg>
