<svg width="21" height="19" viewBox="0 0 21 19" fill="none" xmlns="http://www.w3.org/2000/svg">
<path d="M18.6986 1.90266C17.6062 0.809889 16.1578 0.145496 14.6169 0.0303063C13.076 -0.0848831 11.5449 0.356782 10.3022 1.27498C8.99294 0.301192 7.36337 -0.140371 5.74163 0.0392135C4.11988 0.218798 2.62641 1.00619 1.56196 2.24283C0.497513 3.47946 -0.0588406 5.07349 0.00493438 6.7039C0.0687094 8.33431 0.747876 9.88001 1.90567 11.0297L9.57158 18.6956C9.66723 18.7921 9.78104 18.8686 9.90643 18.9209C10.0318 18.9731 10.1663 19 10.3022 19C10.438 19 10.5725 18.9731 10.6979 18.9209C10.8233 18.8686 10.9371 18.7921 11.0327 18.6956L18.6986 11.0297C19.2982 10.4306 19.7738 9.71915 20.0983 8.93612C20.4228 8.15309 20.5898 7.31379 20.5898 6.46619C20.5898 5.61859 20.4228 4.77929 20.0983 3.99626C19.7738 3.21323 19.2982 2.50181 18.6986 1.90266ZM17.2478 9.57886L10.3022 16.5142L3.35653 9.57886C2.74447 8.96425 2.32752 8.18258 2.158 7.33191C1.98848 6.48125 2.07394 5.59946 2.40364 4.79718C2.73335 3.99489 3.29263 3.30783 4.01132 2.82218C4.73001 2.33653 5.57611 2.07392 6.44347 2.0673C7.60222 2.07014 8.71248 2.53274 9.53042 3.35352C9.62607 3.44997 9.73988 3.52652 9.86527 3.57876C9.99066 3.631 10.1252 3.65789 10.261 3.65789C10.3968 3.65789 10.5313 3.631 10.6567 3.57876C10.7821 3.52652 10.8959 3.44997 10.9916 3.35352C11.8336 2.62385 12.9214 2.24134 14.0348 2.28341C15.1482 2.32547 16.2041 2.78897 16.9887 3.58009C17.7732 4.37122 18.228 5.43087 18.2608 6.54459C18.2936 7.65831 17.9021 8.7429 17.1655 9.57886H17.2478Z" fill="#75839D"/>
</svg>
