<svg width="22" height="24" viewBox="0 0 22 24" fill="none" xmlns="http://www.w3.org/2000/svg">
<path d="M18.0723 16.9639C17.1566 16.9639 16.3373 17.3253 15.7108 17.8916L7.12048 12.8916C7.18072 12.6145 7.22892 12.3373 7.22892 12.0482C7.22892 11.759 7.18072 11.4819 7.12048 11.2048L15.6145 6.25301C16.2651 6.85542 17.1205 7.22892 18.0723 7.22892C20.0723 7.22892 21.6867 5.61446 21.6867 3.61446C21.6867 1.61446 20.0723 0 18.0723 0C16.0723 0 14.4578 1.61446 14.4578 3.61446C14.4578 3.90361 14.506 4.18072 14.5663 4.45783L6.07229 9.40964C5.42169 8.80723 4.56626 8.43373 3.61446 8.43373C1.61446 8.43373 0 10.0482 0 12.0482C0 14.0482 1.61446 15.6627 3.61446 15.6627C4.56626 15.6627 5.42169 15.2892 6.07229 14.6867L14.6506 19.6988C14.5904 19.9518 14.5542 20.2169 14.5542 20.4819C14.5542 22.4217 16.1325 24 18.0723 24C20.012 24 21.5904 22.4217 21.5904 20.4819C21.5904 18.5422 20.012 16.9639 18.0723 16.9639Z" fill="#80B0FF"/>
</svg>
