<svg width="24" height="24" viewBox="0 0 24 24" fill="none" xmlns="http://www.w3.org/2000/svg">
<path d="M17.4981 14.412C17.2584 14.2921 15.7004 13.573 15.4607 13.4532C15.221 13.3333 14.9813 13.3333 14.7416 13.573C14.5019 13.8127 14.0225 14.5318 13.7828 14.7715C13.6629 15.0112 13.4232 15.0112 13.1835 14.8914C12.3446 14.5318 11.5056 14.0524 10.7865 13.4532C10.1873 12.8539 9.58801 12.1348 9.10861 11.4157C8.98876 11.176 9.10861 10.9363 9.22846 10.8165C9.34831 10.6966 9.46816 10.4569 9.70787 10.3371C9.82772 10.2172 9.94757 9.97753 9.94757 9.85768C10.0674 9.73783 10.0674 9.49813 9.94757 9.37828C9.82771 9.25843 9.22846 7.82023 8.98876 7.22097C8.86891 6.38202 8.62921 6.38202 8.38951 6.38202C8.26966 6.38202 8.02996 6.38202 7.79026 6.38202C7.55056 6.38202 7.19101 6.62172 7.07116 6.74157C6.35206 7.46067 5.99251 8.29963 5.99251 9.25843C6.11236 10.3371 6.47191 11.4157 7.19101 12.3745C8.50936 14.2921 10.1873 15.8502 12.2247 16.809C12.824 17.0487 13.3034 17.2884 13.9026 17.4082C14.5019 17.6479 15.1011 17.6479 15.8202 17.5281C16.6592 17.4082 17.3783 16.809 17.8577 16.0899C18.0974 15.6105 18.0974 15.1311 17.9775 14.6517C17.9775 14.6517 17.7378 14.5318 17.4981 14.412ZM20.4944 3.50562C15.8202 -1.16854 8.26966 -1.16854 3.59551 3.50562C-0.2397 7.34082 -0.958801 13.2135 1.6779 17.8876L0 24L6.35206 22.3221C8.14981 23.2809 10.0674 23.7603 11.985 23.7603C18.5768 23.7603 23.8502 18.4869 23.8502 11.8951C23.97 8.77903 22.6517 5.78277 20.4944 3.50562ZM17.2584 20.2846C15.7004 21.2434 13.9026 21.8427 11.985 21.8427C10.1873 21.8427 8.50936 21.3633 6.95131 20.5243L6.59176 20.2846L2.8764 21.2434L3.83521 17.6479L3.59551 17.2884C0.719101 12.4944 2.1573 6.50187 6.83146 3.50562C11.5056 0.509364 17.4981 2.06742 20.3745 6.62172C23.2509 11.2959 21.9326 17.4082 17.2584 20.2846Z" fill="#80B0FF"/>
</svg>
