<svg width="32" height="32" viewBox="0 0 32 32" fill="none" xmlns="http://www.w3.org/2000/svg">
<path d="M20.0007 2.66655C17.818 2.66832 15.705 3.43498 14.0291 4.83323C12.3531 6.23148 11.2202 8.17289 10.8273 10.3199C9.67856 10.9396 8.69889 11.8311 7.97378 12.9164C7.24867 14.0018 6.80014 15.248 6.66732 16.5465C5.67498 16.9831 4.80406 17.655 4.13004 18.5041C3.45603 19.3532 2.99925 20.3539 2.79931 21.4194C2.59936 22.4849 2.66227 23.583 2.9826 24.6187C3.30292 25.6544 3.87098 26.5964 4.63756 27.363C5.40413 28.1295 6.34609 28.6976 7.38179 29.0179C8.41748 29.3383 9.51567 29.4012 10.5812 29.2012C11.6467 29.0013 12.6473 28.5445 13.4965 27.8705C14.3456 27.1965 15.0175 26.3256 15.454 25.3332C16.7487 25.2046 17.9924 24.7621 19.0774 24.0442C20.1625 23.3262 21.056 22.3545 21.6807 21.2132C24.0152 20.8387 26.1206 19.5921 27.5716 17.7253C29.0225 15.8584 29.7109 13.5105 29.4976 11.1557C29.2843 8.80095 28.1852 6.6149 26.4224 5.03917C24.6596 3.46343 22.3645 2.61546 20.0007 2.66655ZM13.334 23.2399C13.334 23.3732 13.334 23.5065 13.2407 23.6532C13.0684 24.3395 12.7173 24.9678 12.223 25.474C11.7287 25.9803 11.1089 26.3464 10.427 26.5349C9.745 26.7235 9.02523 26.7278 8.34107 26.5474C7.65691 26.367 7.03284 26.0083 6.53253 25.508C6.03222 25.0077 5.67357 24.3836 5.49316 23.6995C5.31276 23.0153 5.31706 22.2955 5.50562 21.6136C5.69418 20.9316 6.06025 20.3119 6.5665 19.8176C7.07275 19.3233 7.70105 18.9721 8.38732 18.7999L8.76065 18.6665C9.38676 18.5496 10.0319 18.5869 10.6404 18.7753C11.2488 18.9638 11.8022 19.2976 12.2525 19.748C12.7029 20.1984 13.0368 20.7517 13.2252 21.3602C13.4136 21.9686 13.451 22.6138 13.334 23.2399ZM20.0007 18.3465C19.9831 18.4321 19.9608 18.5167 19.934 18.5999C19.8767 18.8453 19.801 19.086 19.7073 19.3199C19.4003 20.0983 18.9145 20.7935 18.2891 21.3494C17.6637 21.9053 16.9163 22.3063 16.1073 22.5199C16.1073 22.2799 16.1073 22.0532 16.0273 21.8132C15.9473 21.5732 16.0273 21.4532 16.0273 21.2799C16.0273 21.1065 15.8673 20.7732 15.7873 20.5199C15.7073 20.2665 15.694 20.1999 15.6273 20.0399C15.5124 19.7858 15.3787 19.5407 15.2273 19.3065C15.2273 19.1865 15.1073 19.0532 15.0273 18.9332C14.7902 18.5856 14.5224 18.2599 14.2273 17.9599L13.9607 17.7332C13.7371 17.5277 13.5011 17.3362 13.254 17.1599C13.1087 17.0654 12.9573 16.9807 12.8007 16.9065C12.5872 16.7709 12.3645 16.6506 12.134 16.5465C11.9618 16.4729 11.7833 16.4149 11.6007 16.3732C11.3762 16.2821 11.1442 16.2107 10.9073 16.1599C10.7207 16.1599 10.5207 16.1599 10.3207 16.0799L9.50732 15.9999C9.71956 15.1922 10.1185 14.4457 10.672 13.8204C11.2255 13.1952 11.9181 12.7086 12.694 12.3999C12.9227 12.3044 13.1591 12.2285 13.4007 12.1732L13.6673 12.1065C13.9962 12.0374 14.3312 12.0016 14.6673 11.9999C16.0818 11.9999 17.4384 12.5618 18.4386 13.562C19.4387 14.5622 20.0007 15.9187 20.0007 17.3332C19.9989 17.6737 19.9631 18.0132 19.894 18.3465H20.0007ZM22.6673 18.1332C22.6673 17.8665 22.6673 17.5999 22.6673 17.3332C22.6673 15.2115 21.8245 13.1767 20.3242 11.6764C18.8239 10.1761 16.789 9.33322 14.6673 9.33322C14.4007 9.33322 14.134 9.33322 13.8673 9.33322C14.3068 8.34461 14.9803 7.47783 15.8296 6.80768C16.679 6.13753 17.6787 5.68417 18.7424 5.48671C19.8061 5.28926 20.9019 5.35365 21.9352 5.67433C22.9685 5.99501 23.9082 6.56235 24.6732 7.32736C25.4382 8.09237 26.0055 9.03207 26.3262 10.0653C26.6469 11.0986 26.7113 12.1944 26.5138 13.2581C26.3164 14.3219 25.863 15.3215 25.1929 16.1709C24.5227 17.0202 23.6559 17.6937 22.6673 18.1332Z" fill="#75839D"/>
</svg>
