<svg width="25" height="25" viewBox="0 0 25 25" fill="none" xmlns="http://www.w3.org/2000/svg">
<path d="M12.497 0L12.9006 1.2416H14.2127L13.156 2.00941L13.5538 3.25233L12.497 2.48453L11.4402 3.25233L11.8439 2.01007L10.7872 1.24226H12.0934L12.497 0ZM7.10342 1.43829L7.50704 2.67989H8.81912L7.76239 3.4477L8.1602 4.69062L7.10342 3.92282L6.04663 4.69062L6.45031 3.44836L5.39359 2.68055H6.6998L7.10342 1.43829ZM3.14812 5.39359L3.55174 6.63519H4.86382L3.80709 7.403L4.2049 8.64592L3.14812 7.87812L2.09133 8.64592L2.49501 7.40366L1.43829 6.63585H2.7445L3.14812 5.39359ZM1.70983 10.7871L2.11345 12.0288H3.42553L2.3688 12.7966L2.76661 14.0396L1.70983 13.2717L0.653044 14.0396L1.05672 12.7972L0 12.0294H1.30621L1.70983 10.7871ZM3.14812 16.1808L3.55174 17.4224H4.86382L3.80709 18.1902L4.2049 19.4331L3.14812 18.6654L2.09133 19.4331L2.49501 18.1908L1.43829 17.423H2.7445L3.14812 16.1808ZM7.10342 20.1361L7.50704 21.3777H8.81912L7.76239 22.1455L8.1602 23.3884L7.10342 22.6207L6.04663 23.3884L6.45031 22.1461L5.39359 21.3783H6.6998L7.10342 20.1361ZM17.8906 1.43829L18.2942 2.67989H19.6063L18.5496 3.4477L18.9473 4.69062L17.8906 3.92282L16.8338 4.69062L17.2375 3.44836L16.1808 2.68055H17.4869L17.8906 1.43829ZM21.8459 5.39359L22.2495 6.63519H23.5616L22.5049 7.403L22.9026 8.64592L21.8459 7.87812L20.7891 8.64592L21.1928 7.40366L20.1361 6.63585H21.4422L21.8459 5.39359ZM23.2842 10.7872L23.6878 12.0288H24.9999L23.9432 12.7966L24.341 14.0396L23.2842 13.2717L22.2274 14.0396L22.6311 12.7972L21.5744 12.0294H22.8806L23.2842 10.7872ZM21.8459 16.1808L22.2495 17.4224H23.5616L22.5049 18.1902L22.9027 19.4331L21.8459 18.6654L20.7891 19.4331L21.1928 18.1908L20.1361 17.423H21.4423L21.8459 16.1808ZM12.497 21.5744L12.9006 22.816H14.2127L13.156 23.5838L13.5538 24.8267L12.497 24.0589L11.4402 24.8267L11.8439 23.5844L10.7872 22.8166H12.0934L12.497 21.5744ZM17.8906 20.136L18.2942 21.3777H19.6063L18.5496 22.1455L18.9474 23.3884L17.8906 22.6206L16.8339 23.3884L17.2375 22.1461L16.1808 21.3783H17.487L17.8906 20.136Z" fill="#FFCC00"/>
</svg>
