<svg width="54" height="67" viewBox="0 0 54 67" fill="none" xmlns="http://www.w3.org/2000/svg">
<path d="M52 5.5C51.3333 4.83333 50.3333 4.5 49.3333 4.83333C42 6.5 34.6667 4.83333 28.6667 0.5C27.6667 -0.166667 26 -0.166667 25 0.5C18.6667 4.83333 11.3333 6.5 4 4.83333C2.33333 4.5 0.333333 5.83333 0 7.5C0 7.83333 0 7.83333 0 8.16667V33.1667C0 42.8333 4.66667 51.8333 12.6667 57.5L25 66.1667C26 66.8333 27.6667 66.8333 29 66.1667L41.3333 57.5C49.3333 51.8333 54 42.8333 54 33.1667V8.16667C53.3333 7.16667 53 6.16667 52 5.5ZM36.6667 30.1667L25.3333 41.5C24 42.8333 22 42.8333 20.6667 41.5L15.3333 36.1667C14 34.8333 14 32.8333 15.3333 31.5C16.6667 30.1667 18.6667 30.1667 20 31.5L23 34.5L32 25.5C33.3333 24.1667 35.3333 24.1667 36.6667 25.5C38 26.8333 38 28.8333 36.6667 30.1667Z" fill="#0061FF"/>
</svg>
