<svg width="20" height="20" viewBox="0 0 20 20" fill="none" xmlns="http://www.w3.org/2000/svg">
<path d="M11.9665 11.8583C11.4094 12.3075 10.7154 12.5524 9.99984 12.5524C9.28426 12.5524 8.59024 12.3075 8.03317 11.8583C7.86299 11.7169 7.64359 11.6488 7.42324 11.6691C7.20288 11.6895 6.99962 11.7965 6.85817 11.9667C6.71673 12.1368 6.64867 12.3562 6.66899 12.5766C6.68931 12.797 6.79633 13.0002 6.96651 13.1417C7.81762 13.8522 8.89114 14.2414 9.99984 14.2414C11.1085 14.2414 12.1821 13.8522 13.0332 13.1417C13.2034 13.0002 13.3104 12.797 13.3307 12.5766C13.351 12.3562 13.283 12.1368 13.1415 11.9667C13.0715 11.8824 12.9855 11.8128 12.8886 11.7617C12.7916 11.7107 12.6856 11.6792 12.5764 11.6691C12.3561 11.6488 12.1367 11.7169 11.9665 11.8583ZM7.49984 9.16666C7.66466 9.16666 7.82578 9.11779 7.96282 9.02622C8.09986 8.93465 8.20667 8.80451 8.26974 8.65223C8.33281 8.49996 8.34932 8.33241 8.31716 8.17076C8.28501 8.00911 8.20564 7.86062 8.0891 7.74408C7.97255 7.62753 7.82407 7.54816 7.66242 7.51601C7.50076 7.48386 7.33321 7.50036 7.18094 7.56343C7.02867 7.6265 6.89852 7.73331 6.80695 7.87036C6.71538 8.0074 6.66651 8.16851 6.66651 8.33333C6.66651 8.55434 6.7543 8.76631 6.91059 8.92259C7.06687 9.07887 7.27883 9.16666 7.49984 9.16666ZM12.4998 7.5C12.335 7.5 12.1739 7.54887 12.0369 7.64044C11.8998 7.73201 11.793 7.86216 11.7299 8.01443C11.6669 8.1667 11.6504 8.33426 11.6825 8.49591C11.7147 8.65756 11.794 8.80604 11.9106 8.92259C12.0271 9.03913 12.1756 9.1185 12.3373 9.15065C12.4989 9.18281 12.6665 9.1663 12.8187 9.10323C12.971 9.04016 13.1012 8.93335 13.1927 8.79631C13.2843 8.65927 13.3332 8.49815 13.3332 8.33333C13.3332 8.11232 13.2454 7.90036 13.0891 7.74408C12.9328 7.5878 12.7209 7.5 12.4998 7.5ZM9.99984 1.66666C8.35166 1.66666 6.7405 2.15541 5.37009 3.07108C3.99968 3.98676 2.93158 5.28825 2.30084 6.81097C1.67011 8.33369 1.50509 10.0092 1.82663 11.6258C2.14817 13.2423 2.94185 14.7271 4.10728 15.8926C5.27272 17.058 6.75758 17.8517 8.37409 18.1732C9.9906 18.4948 11.6662 18.3297 13.1889 17.699C14.7116 17.0683 16.0131 16.0002 16.9288 14.6298C17.8444 13.2593 18.3332 11.6482 18.3332 10C18.3332 8.90565 18.1176 7.82202 17.6988 6.81097C17.28 5.79992 16.6662 4.88126 15.8924 4.10744C15.1186 3.33362 14.1999 2.71979 13.1889 2.301C12.1778 1.88221 11.0942 1.66666 9.99984 1.66666ZM9.99984 16.6667C8.6813 16.6667 7.39237 16.2757 6.29604 15.5431C5.19971 14.8106 4.34523 13.7694 3.84064 12.5512C3.33606 11.333 3.20404 9.9926 3.46127 8.6994C3.71851 7.40619 4.35345 6.2183 5.2858 5.28595C6.21815 4.3536 7.40603 3.71866 8.69924 3.46143C9.99245 3.20419 11.3329 3.33622 12.5511 3.8408C13.7692 4.34539 14.8104 5.19987 15.543 6.2962C16.2755 7.39252 16.6665 8.68146 16.6665 10C16.6665 11.7681 15.9641 13.4638 14.7139 14.714C13.4636 15.9643 11.768 16.6667 9.99984 16.6667Z" fill="#75839D"/>
</svg>
