<svg width="32" height="32" viewBox="0 0 32 32" fill="none" xmlns="http://www.w3.org/2000/svg">
<path d="M25.3334 21.3333H24V9.33331C24 8.53331 23.4667 7.99998 22.6667 7.99998H10.6667V6.66665C10.6667 5.86665 10.1334 5.33331 9.33337 5.33331C8.53337 5.33331 8.00004 5.86665 8.00004 6.66665V7.99998H6.66671C5.86671 7.99998 5.33337 8.53331 5.33337 9.33331C5.33337 10.1333 5.86671 10.6666 6.66671 10.6666H8.00004V22.6666C8.00004 23.4666 8.53337 24 9.33337 24H21.3334V25.3333C21.3334 26.1333 21.8667 26.6666 22.6667 26.6666C23.4667 26.6666 24 26.1333 24 25.3333V24H25.3334C26.1334 24 26.6667 23.4666 26.6667 22.6666C26.6667 21.8666 26.1334 21.3333 25.3334 21.3333ZM21.3334 21.3333H10.6667V10.6666H21.3334V21.3333Z" fill="#0061FF"/>
</svg>
