<svg width="20" height="20" viewBox="0 0 20 20" fill="none" xmlns="http://www.w3.org/2000/svg">
<path d="M7.74162 1.90821L4.40828 5.24154C4.33059 5.31924 4.26895 5.41148 4.2269 5.513C4.18485 5.61452 4.16321 5.72332 4.16321 5.83321C4.16321 6.05513 4.25136 6.26795 4.40828 6.42487C4.5652 6.58179 4.77803 6.66995 4.99995 6.66995C5.22187 6.66995 5.4347 6.58179 5.59162 6.42487L7.49995 4.50821L7.49995 14.1665C7.49995 14.3876 7.58775 14.5995 7.74403 14.7558C7.90031 14.9121 8.11227 14.9999 8.33328 14.9999C8.5543 14.9999 8.76626 14.9121 8.92254 14.7558C9.07882 14.5995 9.16662 14.3876 9.16662 14.1665V2.49987C9.1658 2.33535 9.11629 2.17476 9.02435 2.03832C8.93241 1.90189 8.80213 1.79572 8.64995 1.73321C8.49819 1.66939 8.33093 1.65196 8.16927 1.6831C8.00762 1.71425 7.8588 1.79258 7.74162 1.90821ZM10.8333 5.83321V17.4999C10.8341 17.6644 10.8836 17.825 10.9756 17.9614C11.0675 18.0979 11.1978 18.204 11.35 18.2665C11.5017 18.3304 11.669 18.3478 11.8306 18.3166C11.9923 18.2855 12.1411 18.2072 12.2583 18.0915L15.5916 14.7582C15.6697 14.6807 15.7317 14.5886 15.774 14.487C15.8163 14.3855 15.8381 14.2766 15.8381 14.1665C15.8381 14.0565 15.8163 13.9476 15.774 13.8461C15.7317 13.7445 15.6697 13.6523 15.5916 13.5749C15.5141 13.4968 15.422 13.4348 15.3204 13.3925C15.2189 13.3502 15.11 13.3284 15 13.3284C14.8899 13.3284 14.781 13.3502 14.6795 13.3925C14.5779 13.4348 14.4858 13.4968 14.4083 13.5749L12.5 15.4915V5.83321C12.5 5.61219 12.4122 5.40023 12.2559 5.24395C12.0996 5.08767 11.8876 4.99987 11.6666 4.99987C11.4456 4.99987 11.2336 5.08767 11.0774 5.24395C10.9211 5.40023 10.8333 5.61219 10.8333 5.83321Z" fill="#9EA8BA"/>
</svg>
