<svg width="51" height="82" viewBox="0 0 51 82" fill="none" xmlns="http://www.w3.org/2000/svg">
<path d="M51 7.14194V74.8581C51 78.8258 47.8531 82 43.9196 82H7.08042C3.14685 82 0 78.8258 0 74.8581V7.14194C0 3.17419 3.14685 0 7.08042 0H43.9301C47.8531 0 51 3.17419 51 7.14194Z" fill="#0061FF"/>
<path d="M5.24512 11.9032V66.0021C5.24512 67.3246 6.29407 68.3827 7.60526 68.3827H43.3955C44.7067 68.3827 45.7556 67.3246 45.7556 66.0021V11.9032C45.7556 10.5806 44.7067 9.52258 43.3955 9.52258H7.60526C6.29407 9.52258 5.24512 10.7182 5.24512 11.9032Z" fill="white"/>
<path d="M25.4369 52.6387C31.8094 52.6387 36.9754 47.4279 36.9754 41C36.9754 34.5722 31.8094 29.3613 25.4369 29.3613C19.0644 29.3613 13.8984 34.5722 13.8984 41C13.8984 47.4279 19.0644 52.6387 25.4369 52.6387Z" fill="#E0ECFF"/>
<path d="M43.3951 8.19995H7.60492C5.64338 8.19995 3.93359 9.93518 3.93359 11.9032V66.002C3.93359 68.0441 5.58045 69.7052 7.60492 69.7052H43.3951C45.4196 69.7052 47.0665 68.0441 47.0665 66.002V11.9032C47.0665 9.86111 45.4196 8.19995 43.3951 8.19995ZM44.4441 66.002C44.4441 66.5945 43.9825 67.0601 43.3951 67.0601H7.60492C7.01751 67.0601 6.55597 66.5945 6.55597 66.002V11.9032C6.55597 11.427 7.03849 10.8451 7.60492 10.8451H43.3951C43.9825 10.8451 44.4441 11.3107 44.4441 11.9032V38.9526V66.002ZM21.2413 6.08382H29.7588C30.4825 6.08382 31.07 5.4913 31.07 4.76124C31.07 4.03118 30.4825 3.43866 29.7588 3.43866H21.2413C20.5175 3.43866 19.9301 4.03118 19.9301 4.76124C19.9301 5.4913 20.5175 6.08382 21.2413 6.08382ZM28.0595 71.6838H23.077C21.1679 71.6838 19.6679 73.1969 19.6679 75.1225C19.6679 77.0482 21.1679 78.5612 23.077 78.5612H28.0595C29.9686 78.5612 31.4686 77.0482 31.4686 75.1225C31.4686 73.2603 29.9056 71.6838 28.0595 71.6838ZM28.0595 75.9161H23.077C22.6259 75.9161 22.2902 75.5881 22.2902 75.1225C22.2902 74.657 22.6259 74.329 23.077 74.329H28.0595C28.4161 74.329 28.8462 74.6993 28.8462 75.1225C28.8462 75.5881 28.5105 75.9161 28.0595 75.9161ZM8.39164 6.08382H9.96506C10.6888 6.08382 11.2763 5.4913 11.2763 4.76124C11.2763 4.03118 10.6888 3.43866 9.96506 3.43866H8.39164C7.66786 3.43866 7.08045 4.03118 7.08045 4.76124C7.08045 5.4913 7.66786 6.08382 8.39164 6.08382Z" fill="#80B0FF"/>
<path d="M28.9611 37.0217L23.9891 42.0369L22.038 40.0689C21.524 39.5505 20.6954 39.5505 20.1814 40.0689C19.6674 40.5874 19.6674 41.4233 20.1814 41.9417L23.066 44.8514C23.3178 45.1053 23.6534 45.2429 23.9891 45.2429C24.3247 45.2429 24.6604 45.1159 24.9122 44.8514L30.8073 38.9051C31.3212 38.3866 31.3212 37.5507 30.8073 37.0323C30.2933 36.5138 29.4751 36.5033 28.9611 37.0217Z" fill="#0061FF"/>
</svg>
