<svg width="24" height="27" viewBox="0 0 24 27" fill="none" xmlns="http://www.w3.org/2000/svg">
<path d="M12.8588 8.74301C12.8588 8.51568 12.7685 8.29766 12.6078 8.13692C12.447 7.97617 12.229 7.88586 12.0017 7.88586C11.7743 7.88586 11.5563 7.97617 11.3956 8.13692C11.2348 8.29766 11.1445 8.51568 11.1445 8.74301V13.7144H6.00167C5.77435 13.7144 5.55633 13.8047 5.39558 13.9655C5.23484 14.1262 5.14453 14.3442 5.14453 14.5716C5.14453 14.7989 5.23484 15.0169 5.39558 15.1777C5.55633 15.3384 5.77435 15.4287 6.00167 15.4287H12.0017C12.229 15.4287 12.447 15.3384 12.6078 15.1777C12.7685 15.0169 12.8588 14.7989 12.8588 14.5716V8.74301Z" fill="black"/>
<path d="M9.43004 0.857142C9.43004 0.629814 9.52035 0.411796 9.68109 0.251051C9.84184 0.0903057 10.0599 0 10.2872 0H13.7157C13.9431 0 14.1611 0.0903057 14.3218 0.251051C14.4826 0.411796 14.5729 0.629814 14.5729 0.857142C14.5729 1.08447 14.4826 1.30249 14.3218 1.46323C14.1611 1.62398 13.9431 1.71428 13.7157 1.71428V2.69143C16.0472 3.02743 18.1626 4.02857 19.8597 5.50285C19.8665 5.49534 19.8734 5.48791 19.8803 5.48057L20.4872 4.87371L19.8803 4.26857C19.7194 4.10785 19.6289 3.88977 19.6287 3.66232C19.6285 3.43486 19.7187 3.21666 19.8795 3.05571C20.0402 2.89476 20.2583 2.80425 20.4857 2.80409C20.7132 2.80393 20.9314 2.89413 21.0923 3.05485L23.5163 5.48057C23.5982 5.55963 23.6635 5.65422 23.7084 5.75879C23.7533 5.86337 23.777 5.97584 23.778 6.08965C23.7789 6.20346 23.7573 6.31633 23.7142 6.42167C23.6711 6.52701 23.6074 6.62271 23.5269 6.70319C23.4465 6.78367 23.3508 6.84731 23.2454 6.89041C23.1401 6.93351 23.0272 6.9552 22.9134 6.95421C22.7996 6.95322 22.6871 6.92957 22.5825 6.88465C22.478 6.83973 22.3834 6.77443 22.3043 6.69256L21.6992 6.08571L21.0923 6.69256C21.085 6.69955 21.0776 6.70641 21.07 6.71314C22.8155 8.72803 23.8403 11.2668 23.9828 13.9287C24.1253 16.5907 23.3774 19.2243 21.8571 21.4141C20.3368 23.6038 18.1306 25.2249 15.5866 26.0217C13.0427 26.8185 10.3059 26.7455 7.80808 25.8143C5.31025 24.883 3.1936 23.1466 1.79214 20.8789C0.390684 18.6113 -0.215795 15.9415 0.0684067 13.2909C0.352608 10.6403 1.51131 8.15985 3.36167 6.24086C5.21203 4.32187 7.6487 3.07364 10.2872 2.69314V1.71428C10.0599 1.71428 9.84184 1.62398 9.68109 1.46323C9.52035 1.30249 9.43004 1.08447 9.43004 0.857142ZM12.0015 4.28571C10.6507 4.28582 9.31324 4.55198 8.06536 5.06899C6.81749 5.586 5.68366 6.34373 4.72863 7.29893C2.79984 9.22803 1.71639 11.8443 1.71662 14.5723C1.71685 17.3002 2.80073 19.9163 4.72984 21.8451C6.65894 23.7739 9.27524 24.8573 12.0032 24.8571C14.7311 24.8569 17.3472 23.773 19.276 21.8439C21.2048 19.9148 22.2883 17.2985 22.288 14.5706C22.2878 11.8426 21.2039 9.2265 19.2748 7.29772C17.3457 5.36893 14.7294 4.28548 12.0015 4.28571Z" fill="black"/>
</svg>
